<?xml version="1.0" encoding="utf-8"?>
<!-- Generator: Adobe Illustrator 24.0.1, SVG Export Plug-In . SVG Version: 6.00 Build 0)  -->
<svg version="1.1" id="Сгруппировать_220"
	 xmlns="http://www.w3.org/2000/svg" xmlns:xlink="http://www.w3.org/1999/xlink" x="0px" y="0px" viewBox="0 0 77.5 74.6"
	 style="enable-background:new 0 0 77.5 74.6;" xml:space="preserve">
<style type="text/css">
	.st0{fill:#FFFFFF;}
	.st1{fill:#00DBD0;}
</style>
<ellipse class="st0" cx="38.8" cy="37.3" rx="38.8" ry="37.3"/>
<g id="Сгруппировать_219">
	<path id="Контур_36514" class="st1" d="M32.6,30.3c1.4,1.4,3.1,2.2,5,2.5V28c-2-0.7-3.1-2.9-2.4-4.9s2.9-3.1,4.9-2.4
		c2,0.7,3.1,2.9,2.4,4.9c-0.4,1.1-1.3,2-2.4,2.4v4.8c4.9-0.7,8.3-5.2,7.6-10.1c-0.3-1.9-1.2-3.7-2.5-5.1l-6.3-6.3l-6.3,6.3
		C29.1,21.1,29.1,26.8,32.6,30.3C32.6,30.3,32.6,30.3,32.6,30.3z"/>
	<path id="Контур_36515" class="st1" d="M53.2,41.9c-1.6,0-3.1-1-3.6-2.6h-4.8c0.7,4.9,5.2,8.3,10.1,7.6
		c1.9-0.3,3.7-1.2,5.1-2.5l6.3-6.3l-6.3-6.3c-3.5-3.5-9.1-3.5-12.6,0c-1.4,1.4-2.3,3.1-2.5,5.1h4.8c0.7-2,2.9-3.1,4.9-2.4
		c2,0.7,3.1,2.9,2.4,4.9C56.3,40.9,54.8,41.9,53.2,41.9L53.2,41.9z"/>
	<path id="Контур_36516" class="st1" d="M50.4,22.1c0,3,2.4,5.4,5.4,5.4c3,0,5.4-2.4,5.4-5.4v-5.4h-5.4
		C52.9,16.7,50.4,19.1,50.4,22.1C50.4,22.1,50.4,22.1,50.4,22.1z"/>
	<path id="Контур_36517" class="st1" d="M67.8,30.7l2.5-2.5l-2.5-2.5c-1.4-1.4-3.6-1.4-4.9,0c-1.4,1.4-1.4,3.6,0,4.9
		C64.2,32.1,66.4,32.1,67.8,30.7L67.8,30.7z"/>
	<path id="Контур_36518" class="st1" d="M52.2,15.3c1.4-1.4,1.4-3.6,0-4.9c0,0,0,0,0,0L49.7,8l-2.5,2.5
		c-1.4,1.4-1.4,3.6,0,4.9C48.6,16.7,50.8,16.7,52.2,15.3z"/>
	<path id="Контур_36519" class="st1" d="M24.7,34.2c1.6,0,3.1,1,3.6,2.6h4.8c-0.7-4.9-5.2-8.3-10.1-7.6
		c-1.9,0.3-3.7,1.2-5.1,2.5l-6.3,6.3l6.3,6.3c3.5,3.5,9.1,3.5,12.6,0c1.4-1.4,2.3-3.1,2.5-5.1h-4.8c-0.7,2-2.9,3.1-4.9,2.4
		c-2-0.7-3.1-2.9-2.4-4.9C21.6,35.2,23.1,34.2,24.7,34.2L24.7,34.2z"/>
	<path id="Контур_36520" class="st1" d="M22.1,27.4c3,0,5.4-2.4,5.4-5.4s-2.4-5.4-5.4-5.4h-5.4v5.4
		C16.7,25,19.1,27.4,22.1,27.4C22.1,27.4,22.1,27.4,22.1,27.4z"/>
	<path id="Контур_36521" class="st1" d="M15,30.7c1.4-1.4,1.4-3.6,0-4.9c-1.4-1.4-3.6-1.4-4.9,0l0,0l-2.5,2.5l2.5,2.5
		C11.5,32.1,13.7,32.1,15,30.7C15,30.7,15,30.7,15,30.7z"/>
	<path id="Контур_36522" class="st1" d="M30.6,15.3c1.4-1.4,1.4-3.6,0-4.9c0,0,0,0,0,0L28.2,8l-2.5,2.5
		c-1.4,1.4-1.4,3.6,0,4.9C27.1,16.7,29.3,16.7,30.6,15.3L30.6,15.3z"/>
	<path id="Контур_36523" class="st1" d="M45.2,45.9c-1.4-1.4-3.1-2.2-5-2.5v4.8c2,0.7,3.1,2.9,2.4,4.9c-0.7,2-2.9,3.1-4.9,2.4
		c-2-0.7-3.1-2.9-2.4-4.9c0.4-1.1,1.3-2,2.4-2.4v-4.8c-4.9,0.7-8.3,5.2-7.6,10.1c0.3,1.9,1.2,3.7,2.5,5.1l6.3,6.3l6.3-6.3
		C48.4,55.1,48.2,49.5,45.2,45.9z"/>
	<path id="Контур_36524" class="st1" d="M55.8,48.7c-3,0-5.4,2.4-5.4,5.4s2.4,5.4,5.4,5.4h5.4v-5.4
		C61.2,51.1,58.8,48.7,55.8,48.7z"/>
	<path id="Контур_36525" class="st1" d="M62.9,45.4c-1.4,1.4-1.4,3.6,0,4.9c1.4,1.4,3.6,1.4,4.9,0l0,0l2.5-2.5l-2.5-2.5
		C66.4,44.1,64.2,44.1,62.9,45.4C62.9,45.4,62.9,45.4,62.9,45.4z"/>
	<path id="Контур_36526" class="st1" d="M47.3,60.8c-1.4,1.4-1.4,3.6,0,4.9c0,0,0,0,0,0l2.5,2.5l2.5-2.5
		c1.4-1.4,1.4-3.6,0-4.9C50.8,59.5,48.6,59.5,47.3,60.8L47.3,60.8L47.3,60.8z"/>
	<path id="Контур_36527" class="st1" d="M27.5,54.1c0-3-2.4-5.4-5.4-5.4s-5.4,2.4-5.4,5.4v5.4h5.4
		C25,59.5,27.5,57.1,27.5,54.1C27.5,54.1,27.5,54.1,27.5,54.1z"/>
	<path id="Контур_36528" class="st1" d="M10.1,45.4l-2.5,2.5l2.5,2.5c1.4,1.4,3.6,1.4,4.9,0c1.4-1.4,1.4-3.6,0-4.9
		C13.7,44.1,11.5,44.1,10.1,45.4L10.1,45.4z"/>
	<path id="Контур_36529" class="st1" d="M25.7,60.8c-1.4,1.4-1.4,3.6,0,4.9c0,0,0,0,0,0l2.5,2.5l2.5-2.5
		c1.4-1.4,1.4-3.6,0-4.9C29.3,59.5,27.1,59.5,25.7,60.8L25.7,60.8z"/>
</g>
</svg>
