<?xml version="1.0" encoding="utf-8"?>
<!-- Generator: Adobe Illustrator 24.0.1, SVG Export Plug-In . SVG Version: 6.00 Build 0)  -->
<svg version="1.1" id="Слой_1" xmlns="http://www.w3.org/2000/svg" xmlns:xlink="http://www.w3.org/1999/xlink" x="0px" y="0px"
	 viewBox="0 0 190.8 86.9" style="enable-background:new 0 0 190.8 86.9;" xml:space="preserve">
<style type="text/css">
	.st0{fill:#374B5C;}
	.st1{opacity:0.98;fill:none;stroke:#374B5C;stroke-linecap:round;stroke-miterlimit:10;}
	.st2{font-family:'TimesNewRomanPS-BoldMT';}
	.st3{font-size:36px;}
</style>
<rect x="87.3" y="65.2" class="st0" width="19.3" height="1.9"/>
<path class="st0" d="M56.9,16.6c-2.6-0.1-5.3-0.4-7.9-0.8c-0.5-1.3-0.8-2.6-1-4c-0.1-0.5-0.2-0.9-0.3-1.4c-0.3-2.1-1.2-4.2-2.6-5.8
	c-0.3-0.3-0.6-0.5-1-0.5h0c-0.6,0-1.1,0.5-1.3,1c-0.5,1.4-0.6,2.8-0.3,4.2c0.1,1.5,0.6,3,1.4,4.3c0.2,0.3,0.4,0.6,0.7,0.9
	c-1.2-0.4-2.4-1-3.5-1.7c-0.1-0.1-0.2-0.2-0.3-0.3c-0.5-3.3-1.2-6.6-2.2-9.8c-0.2-1.2-1-2.2-2-2.7c-0.4-0.2-0.9-0.2-1.2,0
	c-0.4,0.3-0.7,0.7-0.7,1.2c-0.2,2.3,0.1,4.6,1,6.7c-1.8-2-3.9-3.7-6.2-5.1c-0.8-0.5-1.8-0.8-2.7-0.7C26.3,2.3,26,2.6,26,3
	c0,1.3,0.7,2.5,2.3,3.7c2.2,1.5,4.6,2.6,7.2,3.3c0.6,0.7,1.2,1.4,2,2c-3.5-0.6-7,0-10,1.8c-0.3,0.2-0.4,0.6-0.2,1
	c0.1,0.1,0.2,0.2,0.3,0.3c1.2,0.5,2.6,0.8,3.9,0.8c0.8,0,1.7-0.1,2.5-0.2c2.2-0.2,4.4-0.8,6.4-1.6c1.1,0.6,2.3,1.2,3.4,1.7
	c-1.6,0.5-3.1,1.3-4.4,2.3c-1.4,1.1-2.4,2.6-2.7,4.4c-0.1,0.5,0.1,1,0.5,1.3c0.2,0.1,0.4,0.2,0.5,0.2c0.3,0,0.5-0.1,0.8-0.2
	c2.9-1.7,5.5-3.8,7.8-6.2l0.7-0.7c0.4,0.1,0.9,0.2,1.3,0.3c0,0,0,0,0.1,0c2.8,0.5,5.6,0.9,8.5,0.9h0c0.4,0,0.7-0.3,0.7-0.7
	C57.6,16.9,57.3,16.6,56.9,16.6L56.9,16.6z M29.2,5.6c-0.7-0.5-1.3-1.1-1.6-1.8c0.4,0.1,0.8,0.3,1.1,0.5c1.7,1,3.2,2.1,4.6,3.5
	C31.8,7.2,30.4,6.5,29.2,5.6L29.2,5.6z M44.1,5.6L44.1,5.6c1.2,1.4,2,3.2,2.2,5c0.1,0.4,0.2,0.9,0.3,1.3c0.2,0.9,0.3,1.8,0.6,2.7
	c-0.9-0.4-1.6-1-2.1-1.8c-0.7-1.1-1.1-2.4-1.2-3.7C43.7,8,43.7,6.8,44.1,5.6L44.1,5.6z M35.9,1.6c0-0.1,0-0.1,0-0.1l0,0
	c0.6,0.3,1,1.1,1.2,1.9c0.8,2.7,1.5,5.5,1.9,8.3l0,0C36.9,8.9,35.5,4.6,35.9,1.6L35.9,1.6z M33.8,14.2c-1.4,0.2-2.8,0.2-4.1,0
	c2.6-1.1,5.4-1.4,8.1-0.8C36.5,13.8,35.1,14.1,33.8,14.2L33.8,14.2z M38.2,22.2c0.3-1.2,1.1-2.3,2.1-3.1c1.2-0.9,2.6-1.6,4-2.1
	c0.1-0.1,0.3-0.1,0.4-0.2C42.8,18.9,40.6,20.7,38.2,22.2L38.2,22.2z"/>
<path class="st0" d="M168.4,13.8c-3-1.8-6.6-2.4-10-1.8c0.7-0.6,1.4-1.3,2-2c2.6-0.6,5-1.7,7.2-3.3c1.6-1.2,2.4-2.4,2.3-3.7
	c0-0.4-0.3-0.6-0.6-0.7c-1,0-1.9,0.2-2.7,0.7c-2.3,1.4-4.4,3.1-6.2,5.1c0.9-2.1,1.2-4.4,1-6.7c0-0.5-0.3-0.9-0.7-1.2
	c-0.4-0.2-0.8-0.2-1.2,0c-1.1,0.6-1.8,1.6-2,2.7c-1,3.2-1.7,6.5-2.2,9.8c-0.1,0.1-0.2,0.1-0.3,0.3c-1.1,0.7-2.3,1.2-3.5,1.7
	c0.3-0.3,0.5-0.6,0.7-0.9c0.8-1.3,1.2-2.8,1.4-4.3c0.2-1.4,0.1-2.9-0.3-4.2c-0.2-0.6-0.7-1-1.3-1c-0.4,0-0.7,0.2-1,0.5
	c-1.4,1.6-2.3,3.6-2.6,5.8c-0.1,0.5-0.2,0.9-0.3,1.4c-0.2,1.4-0.5,2.7-1,4c-2.6,0.5-5.2,0.8-7.9,0.8c-0.4,0-0.7,0.3-0.7,0.7
	c0,0.4,0.3,0.7,0.7,0.7h0c2.9-0.1,5.7-0.4,8.5-0.9c0,0,0,0,0,0c0.4-0.1,0.9-0.2,1.3-0.3l0.7,0.7c2.3,2.4,4.9,4.5,7.8,6.2
	c0.2,0.1,0.5,0.2,0.8,0.2c0.2,0,0.4-0.1,0.5-0.2c0.4-0.3,0.6-0.8,0.5-1.3c-0.3-1.8-1.3-3.3-2.7-4.4c-1.3-1-2.8-1.7-4.4-2.3
	c1.2-0.5,2.3-1,3.4-1.7c2.1,0.8,4.2,1.3,6.4,1.6c0.8,0.1,1.7,0.2,2.5,0.2c1.3,0,2.7-0.2,3.9-0.8c0.3-0.2,0.5-0.6,0.3-0.9
	C168.6,14,168.5,13.9,168.4,13.8L168.4,13.8z M167.2,4.3c0.4-0.2,0.7-0.4,1.1-0.5c-0.4,0.7-0.9,1.4-1.6,1.8
	c-1.3,0.9-2.6,1.6-4.1,2.2C164,6.4,165.5,5.2,167.2,4.3L167.2,4.3z M158.6,3.3c0.3-0.8,0.6-1.6,1.2-1.9l0,0c0,0,0,0.1,0,0.1
	c0.4,3-0.9,7.4-3.2,9.9l0,0C157.1,8.7,157.8,6,158.6,3.3L158.6,3.3z M149.2,12c0.1-0.4,0.2-0.9,0.3-1.3c0.3-1.8,1-3.6,2.2-5l0,0
	c0.4,1.1,0.5,2.4,0.2,3.5c-0.1,1.3-0.5,2.6-1.2,3.7c-0.5,0.8-1.2,1.5-2.1,1.8C148.9,13.8,149.1,12.9,149.2,12z M157.7,22.2
	c-2.4-1.5-4.6-3.3-6.6-5.3c0.1,0.1,0.3,0.1,0.4,0.2c1.4,0.5,2.8,1.2,4,2.1C156.6,19.9,157.3,21,157.7,22.2L157.7,22.2z M162.1,14.2
	c-1.3-0.2-2.7-0.4-4-0.8c2.7-0.6,5.6-0.3,8.1,0.8C164.8,14.5,163.4,14.5,162.1,14.2L162.1,14.2z"/>
<ellipse class="st0" cx="3.2" cy="45.1" rx="3.2" ry="3.2"/>
<ellipse class="st0" cx="187.6" cy="45.1" rx="3.2" ry="3.2"/>
<polyline class="st1" points="62.8,16.9 73.4,16.9 95.8,16.9 114.2,16.9 131.7,16.9 "/>
<text transform="matrix(1 0 0 1 30.373 50.9057)" class="st0 st2 st3">природа</text>
<g>
	<g>
		<path class="st0" d="M55.7,69.2c0.2-0.6,0.4-1.3,0.6-1.9c0.1,0,0.1,0,0.2,0.1c0,0.2,0,0.4,0.2,0.4c0.1,0,0.2,0,0.4,0
			c0.5,0,0.9,0,1.3,0.1c0.7,0.2,1.1,0.5,1.4,0.9c0.3,0.4,0.3,0.9,0.2,1.3c-0.1,0.2-0.2,0.4-0.3,0.6c-0.2,0.2-0.4,0.3-0.6,0.4
			c-0.3,0.1-0.7,0.1-1.2,0.1c0.7,0.3,1.1,0.7,1.3,1.1c0.2,0.4,0.2,0.8,0.1,1.2c-0.1,0.3-0.3,0.6-0.6,0.8c-0.3,0.2-0.6,0.4-1.1,0.4
			c-0.4,0-0.9,0-1.5-0.2c-0.6-0.2-1-0.4-1.3-0.6c-0.3-0.2-0.5-0.6-0.7-1c0.1,0,0.2-0.1,0.3-0.1c0.3,0.6,0.7,1,1.2,1.2
			c0.4,0.1,0.8,0.1,1.1-0.1c0.3-0.2,0.5-0.5,0.7-0.9c0.1-0.3,0.1-0.6,0-0.9c-0.1-0.3-0.2-0.5-0.4-0.6c-0.2-0.1-0.5-0.3-0.9-0.4
			c0-0.1,0.1-0.3,0.1-0.4c0.1,0,0.2,0.1,0.3,0.1c0.5,0.1,0.8,0.1,1.1-0.1c0.3-0.2,0.5-0.5,0.6-1c0.1-0.4,0.1-0.8,0-1
			c-0.1-0.2-0.3-0.4-0.6-0.5c-0.4-0.1-0.7-0.1-1,0.1c-0.3,0.2-0.6,0.5-0.7,1C55.8,69.2,55.7,69.2,55.7,69.2z"/>
		<path class="st0" d="M63.5,69.9c-0.2,0.9-0.5,1.7-0.7,2.6c0,0,0.1,0,0.1,0c0.4,0.1,0.8,0.1,1-0.1c0.3-0.2,0.5-0.6,0.6-1
			c0.1,0,0.1,0,0.2,0c-0.3,1.1-0.6,2.2-0.8,3.4c-0.1,0-0.1,0-0.2,0c0.1-0.4,0-0.7,0-1c-0.1-0.3-0.2-0.5-0.3-0.6
			c-0.1-0.1-0.4-0.2-0.7-0.3c-0.2,0.6-0.3,1.2-0.5,1.8c-0.1,0.4-0.1,0.6-0.1,0.7c0,0.1,0.1,0.2,0.1,0.2c0.1,0.1,0.2,0.1,0.4,0.2
			c0.1,0,0.3,0.1,0.4,0.1c0.6,0.2,1.2,0.1,1.6,0c0.5-0.2,0.8-0.5,1.1-1.1c0.1,0,0.1,0,0.2,0c-0.3,0.7-0.5,1.3-0.8,2
			c-2-0.5-4-1-5.9-1.5c0-0.1,0-0.1,0-0.2c0.1,0,0.2,0,0.2,0.1c0.2,0.1,0.4,0.1,0.5,0c0.1,0,0.2-0.1,0.3-0.2c0.1-0.1,0.1-0.3,0.2-0.6
			c0.4-1.4,0.8-2.8,1.1-4.2c0.1-0.3,0.1-0.5,0.1-0.5c0-0.1,0-0.2-0.1-0.3c-0.1-0.1-0.3-0.2-0.5-0.3c-0.1,0-0.1,0-0.2-0.1
			c0-0.1,0-0.1,0-0.2c1.8,0.5,3.6,1,5.5,1.4c-0.1,0.6-0.3,1.3-0.4,1.9c-0.1,0-0.1,0-0.2,0c0-0.5,0-0.9-0.2-1.1
			c-0.1-0.2-0.3-0.5-0.6-0.6c-0.2-0.1-0.5-0.2-1-0.3C64,70,63.7,70,63.5,69.9z"/>
		<path class="st0" d="M74.6,72.1c-0.4-0.1-0.6,0-0.7,0c-0.1,0.1-0.2,0.3-0.3,0.6c-0.3,1.5-0.5,3-0.8,4.5c-0.1,0.3,0,0.6,0,0.7
			c0.1,0.1,0.3,0.2,0.7,0.3c0,0.1,0,0.1,0,0.2c-1.2-0.2-2.3-0.4-3.5-0.6c0-0.1,0-0.1,0-0.2c0.3,0.1,0.5,0.1,0.6,0.1
			c0.1,0,0.2-0.1,0.3-0.2c0.1-0.1,0.1-0.3,0.2-0.5c0.3-1.7,0.6-3.4,1-5.1c-0.5-0.1-1.1-0.2-1.6-0.3c-0.1,0.6-0.3,1.3-0.4,1.9
			c-0.2,0.8-0.3,1.4-0.4,1.8c-0.1,0.4-0.3,0.8-0.6,1.1c-0.3,0.3-0.6,0.6-0.9,0.7c-0.3,0.1-0.7,0.2-1.1,0.1c-0.3-0.1-0.6-0.2-0.7-0.4
			c-0.1-0.2-0.2-0.4-0.1-0.7c0-0.2,0.1-0.4,0.3-0.5c0.1-0.1,0.3-0.1,0.5-0.1c0.4,0.1,0.6,0.4,0.5,0.8c0,0.2,0,0.3,0.2,0.4
			c0.2,0,0.5,0,0.8-0.3c0.3-0.2,0.5-0.6,0.7-1c0.2-0.5,0.4-1.1,0.5-2c0.1-0.4,0.2-0.8,0.3-1.2c0.1-0.3,0.1-0.6,0.1-0.7
			c0-0.1-0.1-0.2-0.2-0.3c-0.1-0.1-0.3-0.2-0.7-0.2c0-0.1,0-0.1,0-0.2c1.8,0.4,3.6,0.7,5.4,1C74.7,72,74.7,72,74.6,72.1z"/>
		<path class="st0" d="M77.6,72.8c-0.1,0.9-0.3,1.8-0.4,2.7c0,0,0.1,0,0.1,0c0.4,0.1,0.8,0,1-0.3c0.2-0.2,0.4-0.6,0.5-1.1
			c0.1,0,0.1,0,0.2,0c-0.2,1.1-0.3,2.3-0.5,3.4c-0.1,0-0.1,0-0.2,0c0-0.4,0-0.7-0.1-1c-0.1-0.3-0.2-0.4-0.4-0.5
			c-0.2-0.1-0.4-0.2-0.7-0.2c-0.1,0.6-0.2,1.2-0.3,1.8c-0.1,0.4-0.1,0.6,0,0.7c0,0.1,0.1,0.2,0.2,0.2c0.1,0.1,0.2,0.1,0.4,0.1
			c0.1,0,0.3,0,0.4,0.1c0.7,0.1,1.2,0,1.6-0.2c0.4-0.2,0.8-0.6,1-1.2c0.1,0,0.1,0,0.2,0c-0.2,0.7-0.4,1.4-0.6,2.1
			c-2-0.2-4-0.5-6-0.9c0-0.1,0-0.1,0-0.2c0.1,0,0.2,0,0.2,0c0.2,0,0.4,0,0.5,0c0.1,0,0.2-0.1,0.2-0.2c0.1-0.1,0.1-0.3,0.2-0.6
			c0.2-1.4,0.5-2.9,0.7-4.3c0-0.3,0.1-0.5,0.1-0.5c0-0.1-0.1-0.2-0.1-0.3c-0.1-0.1-0.3-0.2-0.5-0.2c-0.1,0-0.1,0-0.2,0
			c0-0.1,0-0.1,0-0.2c1.9,0.3,3.7,0.6,5.6,0.8c-0.1,0.6-0.2,1.3-0.2,1.9c-0.1,0-0.1,0-0.2,0c0-0.5-0.1-0.8-0.3-1.1
			c-0.1-0.2-0.4-0.4-0.7-0.6c-0.2-0.1-0.5-0.2-1-0.2C78.1,72.8,77.9,72.8,77.6,72.8z"/>
		<path class="st0" d="M84.1,76.7c-0.1,0.7-0.1,1.4-0.2,2c0,0.3,0,0.5,0,0.6c0,0.1,0.1,0.2,0.2,0.2c0.1,0.1,0.3,0.1,0.5,0.1
			c0.1,0,0.2,0,0.2,0c0,0.1,0,0.1,0,0.2c-1.2-0.1-2.4-0.2-3.7-0.4c0-0.1,0-0.1,0-0.2c0.1,0,0.2,0,0.2,0c0.2,0,0.4,0,0.5,0
			c0.1,0,0.2-0.1,0.2-0.2c0-0.1,0.1-0.3,0.1-0.6c0.2-1.4,0.3-2.9,0.5-4.3c0-0.3,0-0.5,0-0.6c0-0.1-0.1-0.2-0.2-0.2
			c-0.1-0.1-0.2-0.1-0.4-0.1c-0.1,0-0.1,0-0.2,0c0-0.1,0-0.1,0-0.2c1.2,0.1,2.3,0.3,3.5,0.4c0,0.1,0,0.1,0,0.2c-0.1,0-0.1,0-0.2,0
			c-0.2,0-0.4,0-0.5,0.1c-0.1,0-0.2,0.1-0.2,0.2c0,0.1-0.1,0.3-0.1,0.6c-0.1,0.6-0.1,1.2-0.2,1.9c0.8,0.1,1.6,0.1,2.4,0.2
			c0-0.6,0.1-1.2,0.1-1.9c0-0.3,0-0.5,0-0.6c0-0.1-0.1-0.2-0.2-0.2c-0.1-0.1-0.3-0.1-0.4-0.1c-0.1,0-0.1,0-0.2,0c0-0.1,0-0.1,0-0.2
			c1.2,0.1,2.3,0.2,3.5,0.3c0,0.1,0,0.1,0,0.2c-0.1,0-0.1,0-0.2,0c-0.2,0-0.4,0-0.5,0.1c-0.1,0-0.2,0.1-0.2,0.2
			c0,0.1-0.1,0.3-0.1,0.6c-0.1,1.4-0.2,2.9-0.3,4.3c0,0.3,0,0.5,0,0.6c0,0.1,0.1,0.2,0.2,0.2c0.1,0.1,0.3,0.1,0.5,0.1
			c0.1,0,0.2,0,0.2,0c0,0.1,0,0.1,0,0.2c-1.2-0.1-2.4-0.2-3.7-0.3c0-0.1,0-0.1,0-0.2c0.1,0,0.2,0,0.2,0c0.2,0,0.4,0,0.5-0.1
			c0.1,0,0.2-0.1,0.2-0.2c0-0.1,0.1-0.3,0.1-0.6c0.1-0.7,0.1-1.4,0.2-2C85.7,76.8,84.9,76.7,84.1,76.7z"/>
		<path class="st0" d="M92.2,76.8c0.3,0,0.6,0,0.9,0c1,0,1.7,0.2,2.1,0.5c0.4,0.3,0.7,0.8,0.7,1.3c0,0.4-0.1,0.7-0.4,1
			c-0.2,0.3-0.5,0.5-0.9,0.6c-0.4,0.1-0.9,0.2-1.5,0.2c-1.3,0-2.5-0.1-3.8-0.2c0-0.1,0-0.1,0-0.2c0.4,0,0.7,0,0.8-0.1
			c0.1-0.1,0.2-0.3,0.2-0.7c0.1-1.5,0.1-2.9,0.2-4.4c0-0.5,0-0.8-0.1-0.9c-0.1-0.1-0.3-0.2-0.8-0.2c0-0.1,0-0.1,0-0.2
			c1.2,0.1,2.3,0.1,3.5,0.2c0,0.1,0,0.1,0,0.2c-0.3,0-0.5,0-0.6,0.1c-0.1,0.1-0.2,0.1-0.2,0.2c0,0.1-0.1,0.3-0.1,0.6
			C92.2,75.5,92.2,76.1,92.2,76.8z M92.2,77.2c0,0.7,0,1.3-0.1,2c0,0.3,0,0.5,0.1,0.7c0.1,0.1,0.3,0.2,0.5,0.2
			c0.4,0,0.7-0.1,0.9-0.4c0.2-0.3,0.3-0.6,0.3-1c0-0.4-0.1-0.7-0.3-0.9c-0.2-0.3-0.4-0.4-0.6-0.5C92.9,77.2,92.6,77.2,92.2,77.2z
			 M99.4,80.3c0,0.1,0,0.1,0,0.2c-1.2,0-2.5,0-3.7,0c0-0.1,0-0.1,0-0.2c0.1,0,0.2,0,0.2,0c0.2,0,0.4,0,0.5-0.1
			c0.1-0.1,0.2-0.1,0.2-0.2c0-0.1,0.1-0.3,0.1-0.6c0-1.5,0-2.9,0-4.4c0-0.3,0-0.5,0-0.6c0-0.1-0.1-0.2-0.2-0.2
			C96.4,74.1,96.2,74,96,74c-0.1,0-0.1,0-0.2,0c0-0.1,0-0.1,0-0.2c1.2,0,2.3,0,3.5,0c0,0.1,0,0.1,0,0.2c-0.1,0-0.1,0-0.2,0
			c-0.2,0-0.4,0-0.5,0.1c-0.1,0.1-0.2,0.2-0.2,0.2c0,0.1,0,0.3,0,0.6c0,1.5,0,2.9,0,4.4c0,0.3,0,0.5,0,0.6c0,0.1,0.1,0.2,0.2,0.2
			c0.1,0.1,0.3,0.1,0.5,0.1C99.2,80.3,99.3,80.3,99.4,80.3z"/>
		<path class="st0" d="M102.3,74.1c0,0.9,0.1,1.8,0.1,2.7c0,0,0.1,0,0.1,0c0.4,0,0.7-0.2,0.9-0.4c0.2-0.3,0.3-0.7,0.3-1.2
			c0.1,0,0.1,0,0.2,0c0.1,1.2,0.1,2.3,0.2,3.5c-0.1,0-0.1,0-0.2,0c-0.1-0.4-0.2-0.7-0.3-0.9c-0.1-0.2-0.3-0.4-0.5-0.5
			c-0.2-0.1-0.4-0.1-0.8-0.1c0,0.6,0,1.2,0.1,1.9c0,0.4,0,0.6,0.1,0.7c0,0.1,0.1,0.1,0.2,0.2c0.1,0,0.2,0.1,0.4,0.1
			c0.1,0,0.3,0,0.4,0c0.7,0,1.2-0.2,1.6-0.5c0.4-0.3,0.6-0.8,0.8-1.4c0.1,0,0.1,0,0.2,0c-0.1,0.7-0.1,1.4-0.2,2.1
			c-2,0.1-4.1,0.2-6.1,0.2c0-0.1,0-0.1,0-0.2c0.1,0,0.2,0,0.2,0c0.2,0,0.4,0,0.5-0.1c0.1,0,0.2-0.1,0.2-0.2c0-0.1,0-0.3,0-0.6
			c0-1.5-0.1-2.9-0.1-4.4c0-0.3,0-0.5,0-0.6c0-0.1-0.1-0.2-0.2-0.3c-0.1-0.1-0.3-0.1-0.5-0.1c-0.1,0-0.1,0-0.2,0c0-0.1,0-0.1,0-0.2
			c1.9,0,3.7-0.1,5.6-0.2c0,0.7,0.1,1.3,0.1,2c-0.1,0-0.1,0-0.2,0c-0.1-0.5-0.3-0.8-0.5-1c-0.2-0.2-0.4-0.3-0.8-0.4
			c-0.2,0-0.5-0.1-1,0C102.7,74.1,102.5,74.1,102.3,74.1z"/>
		<path class="st0" d="M113.7,79.5c0-0.1,0-0.1,0-0.2c0.1,0,0.1,0,0.2,0c0.3,0,0.5-0.1,0.6-0.3c0.1-0.1,0.1-0.4,0-0.8
			c-0.2-1.7-0.4-3.3-0.6-5c-0.8,0.1-1.6,0.2-2.4,0.3c0.2,1.7,0.4,3.4,0.5,5c0,0.4,0.1,0.7,0.2,0.8c0.1,0.1,0.3,0.1,0.6,0.1
			c0.1,0,0.1,0,0.2,0c0,0.1,0,0.1,0,0.2c-1.2,0.1-2.4,0.3-3.7,0.4c0-0.1,0-0.1,0-0.2c0.1,0,0.1,0,0.2,0c0.3,0,0.5-0.1,0.6-0.2
			c0.1-0.1,0.1-0.4,0.1-0.8c-0.1-1.4-0.3-2.9-0.4-4.3c0-0.4-0.1-0.6-0.2-0.8c-0.1-0.1-0.3-0.2-0.6-0.1c-0.1,0-0.1,0-0.2,0
			c0-0.1,0-0.1,0-0.2c2.5-0.2,5-0.5,7.5-0.9c0,0.1,0,0.1,0,0.2c-0.1,0-0.1,0-0.2,0c-0.3,0-0.5,0.1-0.6,0.3c-0.1,0.1-0.1,0.4,0,0.8
			c0.2,1.4,0.4,2.9,0.6,4.3c0.1,0.4,0.2,0.7,0.3,0.8c0.1,0.1,0.4,0.1,0.7,0.1c0.1,0,0.1,0,0.2,0c0,0.1,0,0.1,0,0.2
			C116.2,79.2,114.9,79.4,113.7,79.5z"/>
		<path class="st0" d="M120.5,71.7c1-0.2,2-0.1,2.7,0.4c0.8,0.5,1.3,1.2,1.5,2.2c0.2,0.8,0.1,1.6-0.3,2.3c-0.5,1-1.4,1.6-2.7,1.8
			c-1.3,0.2-2.3,0-3.1-0.7c-0.6-0.5-1-1.3-1.1-2.1c-0.1-1,0.1-1.8,0.7-2.6C118.7,72.3,119.5,71.9,120.5,71.7z M120.6,72
			c-0.6,0.1-1,0.5-1.2,1.2c-0.2,0.5-0.2,1.3,0,2.2c0.2,1.1,0.5,1.9,1,2.4c0.4,0.3,0.8,0.4,1.3,0.3c0.4-0.1,0.6-0.2,0.8-0.4
			c0.3-0.3,0.4-0.6,0.5-1.1c0.1-0.5,0.1-1.1-0.1-1.8c-0.2-0.9-0.4-1.5-0.6-1.9c-0.2-0.4-0.5-0.7-0.8-0.8C121.2,72,120.9,72,120.6,72
			z"/>
		<path class="st0" d="M131.6,69.6c-0.4,0.1-0.6,0.2-0.6,0.3c-0.1,0.1-0.1,0.4,0,0.7c0.4,1.5,0.8,3,1.1,4.5c0.1,0.3,0.2,0.5,0.3,0.6
			c0.1,0.1,0.4,0.1,0.8,0c0,0.1,0,0.1,0,0.2c-1.2,0.3-2.3,0.6-3.5,0.9c0-0.1,0-0.1,0-0.2c0.3-0.1,0.5-0.1,0.6-0.2
			c0.1-0.1,0.2-0.2,0.2-0.3c0-0.1,0-0.3-0.1-0.5c-0.4-1.7-0.8-3.4-1.2-5c-0.5,0.1-1.1,0.3-1.6,0.4c0.1,0.6,0.3,1.3,0.4,1.9
			c0.2,0.8,0.3,1.4,0.4,1.9c0.1,0.4,0,0.9-0.1,1.3c-0.1,0.4-0.3,0.8-0.5,1c-0.3,0.3-0.6,0.4-0.9,0.5c-0.3,0.1-0.6,0-0.8-0.1
			c-0.2-0.1-0.4-0.3-0.4-0.6c0-0.2,0-0.4,0.1-0.5c0.1-0.2,0.2-0.3,0.4-0.3c0.4-0.1,0.7,0.1,0.8,0.5c0.1,0.2,0.2,0.3,0.3,0.2
			c0.2,0,0.4-0.2,0.6-0.6c0.2-0.3,0.3-0.7,0.2-1.2c0-0.5-0.1-1.2-0.4-2.1c-0.1-0.4-0.2-0.8-0.3-1.2c-0.1-0.3-0.2-0.6-0.2-0.7
			c-0.1-0.1-0.2-0.2-0.3-0.2c-0.1,0-0.4,0-0.7,0.1c0-0.1,0-0.1,0-0.2c1.8-0.4,3.6-0.8,5.3-1.3C131.5,69.5,131.6,69.5,131.6,69.6z"/>
		<path class="st0" d="M136.9,71.6c-0.4,1.2-0.9,2.4-1.3,3.5c-0.7,0.2-1.4,0.4-2.2,0.6c0-0.1,0-0.1,0-0.2c0.2-0.1,0.3-0.2,0.4-0.3
			c0.1-0.1,0.2-0.3,0.3-0.6c0.3-0.9,0.7-1.7,1-2.6c-0.4,0-0.8,0-1.1-0.2c-0.4-0.2-0.7-0.6-0.9-1c-0.1-0.4-0.1-0.8,0.1-1.1
			c0.2-0.4,0.4-0.6,0.7-0.8c0.3-0.2,0.9-0.4,1.7-0.7c1-0.3,2-0.6,3-0.9c0,0.1,0,0.1,0.1,0.2c-0.3,0.1-0.5,0.2-0.6,0.3
			c-0.1,0.1-0.1,0.2-0.2,0.3c0,0.1,0,0.3,0.1,0.7c0.4,1.4,0.9,2.7,1.3,4.1c0.1,0.3,0.2,0.5,0.3,0.6c0.1,0.1,0.2,0.1,0.3,0.1
			c0.1,0,0.3,0,0.7-0.1c0,0.1,0,0.1,0.1,0.2c-1.2,0.4-2.3,0.7-3.5,1.1c0-0.1,0-0.1-0.1-0.2c0.3-0.1,0.5-0.2,0.6-0.3
			c0.1-0.1,0.2-0.2,0.2-0.3c0-0.1,0-0.3-0.1-0.7c-0.2-0.6-0.4-1.2-0.5-1.8C137.2,71.5,137,71.6,136.9,71.6z M135.9,68.6
			c-0.5,0.2-0.9,0.4-1,0.7c-0.2,0.3-0.2,0.7,0,1.2c0.1,0.3,0.2,0.6,0.4,0.8c0.2,0.2,0.4,0.3,0.7,0.3c0.2,0,0.6,0,1.1-0.2
			c0.1,0,0.2-0.1,0.3-0.1c-0.3-0.9-0.6-1.8-0.8-2.8C136.2,68.5,136,68.5,135.9,68.6z"/>
	</g>
</g>
</svg>
