<?xml version="1.0" encoding="utf-8"?>
<!-- Generator: Adobe Illustrator 24.0.1, SVG Export Plug-In . SVG Version: 6.00 Build 0)  -->
<svg version="1.1" id="Слой_1" xmlns="http://www.w3.org/2000/svg" xmlns:xlink="http://www.w3.org/1999/xlink" x="0px" y="0px"
	 viewBox="0 0 108.1 148.8" style="enable-background:new 0 0 108.1 148.8;" xml:space="preserve">
<style type="text/css">
	.st0{fill:#374B5C;}
</style>
<rect x="2.2" y="67.1" class="st0" width="1.9" height="16.9"/>
<rect x="103.4" y="67.1" class="st0" width="1.9" height="16.9"/>
<g transform="translate(28.856 35.07)">
	<path class="st0" d="M6.8,54.5c-0.4-0.5-1-0.8-1.6-0.8c-0.5,0-1,0-1.5,0.2c0,0-0.1,0-0.1,0c-0.1,0-0.2,0-0.3,0
		c-1.1,0.5-1.9,1.5-2.1,2.7C1,57.3,1.2,58,1.5,58.5c0.2,0.4,0.6,0.7,0.9,0.9c0.6,0.4,1.2,0.5,1.9,0.6c0.4,0,0.7-0.1,1.1-0.2
		c1-0.4,1.8-1.2,2-2.3c0.1-0.7,0-1.4-0.2-2C7.1,55.1,7,54.8,6.8,54.5z M6,57.2c-0.1,0.6-0.5,1-1.1,1.2c-0.6,0.2-1.2,0.1-1.8-0.2
		c-0.2-0.1-0.4-0.3-0.5-0.5c-0.2-0.3-0.2-0.6-0.2-0.9c0.1-0.7,0.5-1.3,1.2-1.6l0,0c0.1,0,0.1,0,0.2,0c0.4-0.1,0.7-0.1,1.1-0.1
		c0.2,0,0.5,0.1,0.6,0.3c0.1,0.1,0.1,0.3,0.2,0.4C6,56.3,6.1,56.7,6,57.2z"/>
	<path class="st0" d="M13.4,48.2c0.6,0.3,1.2,0.5,1.9,0.5c0.4,0,0.7-0.1,1-0.2c1-0.3,1.8-1.2,2-2.3c0.1-0.7,0-1.3-0.2-2
		c-0.1-0.3-0.2-0.6-0.4-0.9c-0.4-0.5-1-0.8-1.6-0.8c-0.5,0-1,0-1.4,0.2c-0.1,0.1-0.3,0.1-0.4,0.1c-1.1,0.5-1.9,1.5-2,2.7
		c-0.1,0.6,0.1,1.2,0.4,1.7C12.7,47.7,13,48,13.4,48.2z M14.6,44.3L14.6,44.3c0.1,0,0.2,0,0.2,0c0.3-0.1,0.7-0.1,1-0.1
		c0.2,0,0.4,0.1,0.6,0.3c0.1,0.1,0.1,0.3,0.2,0.4c0.2,0.4,0.2,0.9,0.2,1.3c-0.1,0.5-0.5,1-1,1.2c-0.6,0.2-1.2,0.1-1.7-0.2
		c-0.2-0.1-0.3-0.3-0.5-0.4c-0.1-0.3-0.2-0.5-0.2-0.8C13.6,45.1,14,44.5,14.6,44.3z"/>
	<path class="st0" d="M16.7,61.1c-0.5-0.6-1.1-0.9-1.9-0.9c-0.6,0-1.2,0.1-1.7,0.2c-0.1,0-0.1,0-0.2,0.1c-0.1,0-0.2,0-0.3,0
		c-1.3,0.5-2.3,1.8-2.4,3.2c-0.1,0.7,0.1,1.4,0.4,2c0.3,0.4,0.6,0.8,1.1,1c0.7,0.4,1.4,0.6,2.2,0.6c0.4,0,0.8-0.1,1.2-0.2
		c1.2-0.4,2.1-1.4,2.3-2.7c0.1-0.8,0-1.6-0.3-2.4C17,61.8,16.9,61.4,16.7,61.1z M16,64.3c-0.1,0.7-0.7,1.4-1.4,1.6
		c-0.8,0.2-1.6,0.1-2.3-0.3c-0.3-0.1-0.5-0.4-0.6-0.6c-0.2-0.3-0.3-0.7-0.2-1.1c0.1-0.9,0.7-1.7,1.5-2c0,0,0.1,0,0.1,0
		c0.1,0,0.2,0,0.2,0c0.4-0.1,0.9-0.2,1.3-0.2c0.3,0,0.6,0.1,0.8,0.4c0.1,0.2,0.2,0.4,0.2,0.6C16,63.1,16.1,63.7,16,64.3L16,64.3z"/>
	<path class="st0" d="M2.7,50.4c0.3,0,0.6,0,0.9-0.1c0.9-0.3,1.5-1.1,1.7-2c0.1-0.6,0-1.1-0.2-1.7c-0.1-0.3-0.2-0.5-0.3-0.7
		c-0.3-0.4-0.9-0.7-1.4-0.7c-0.4,0-0.8,0-1.2,0.1c-0.1,0-0.2,0.1-0.4,0.1c-1,0.4-1.6,1.3-1.7,2.3c-0.1,0.5,0.1,1.1,0.3,1.5
		c0.2,0.3,0.5,0.6,0.8,0.8C1.6,50.3,2.2,50.4,2.7,50.4z M2.3,46.7L2.3,46.7c0.1,0,0.1,0,0.2,0c0.3-0.1,0.5-0.1,0.8-0.1
		c0.1,0,0.3,0.1,0.4,0.2c0.1,0.1,0.1,0.2,0.1,0.3c0.1,0.3,0.2,0.7,0.2,1c-0.1,0.4-0.4,0.7-0.8,0.9c-0.4,0.1-0.9,0.1-1.3-0.2
		c-0.1-0.1-0.3-0.2-0.3-0.3c-0.1-0.2-0.1-0.4-0.1-0.6C1.5,47.3,1.8,46.9,2.3,46.7L2.3,46.7z"/>
	<path class="st0" d="M54.3,27.5c0.5-1.5,0.8-3.1,1.1-4.7c0.1-0.4-0.2-0.7-0.6-0.8c-0.1,0-0.2,0-0.3,0c-1.3,0.3-2.6,0.8-3.9,1.3
		c-0.1,0-0.2,0-0.2,0.1C39.9,27.5,30.8,37,26.8,48c-0.2-6.6-1.3-13.2-3.3-19.6c3.5-3.2,5.9-7.4,6.7-12c0.8-4.8,0.4-9.6-1.4-14.1
		c-0.2-0.6-0.5-1.2-0.7-1.9c0,0,0,0,0,0c0-0.1-0.1-0.2-0.2-0.2c0,0,0,0,0,0c-0.1-0.1-0.1-0.1-0.2-0.1c0,0,0,0,0,0s0,0,0,0
		c0,0-0.1,0-0.1,0c0,0-0.1,0-0.1,0c0,0-0.1,0-0.1,0c-0.1,0-0.2,0.1-0.2,0.1c0,0,0,0,0,0c-2.6,2.2-4.3,5.5-5.2,10.5
		c-1.2,6-1.9,11.4,0.3,17.8l0,0c0.7,2.1,1.2,4.2,1.7,6.3c-0.9-1.9-1.9-3.7-3-5.5c-2-3.5-4.6-6.5-7.7-9c-3.1-2.5-6.9-3.8-10.8-3.8
		c0,0,0,0-0.1,0c0,0-0.1,0-0.1,0c-0.1,0-0.2,0-0.3,0c-0.3,0-0.6,0.3-0.6,0.6c-0.4,2.6,0.9,5,2.3,7c2,3.1,4.2,5.9,6.7,8.6
		c3.5,3.8,9.5,7.9,14.8,8.2c0.4,3.4,0.7,6.8,0.7,10.2c0,2.6-0.1,5.2-0.3,7.7c-0.1,2.1-0.2,4.2-0.2,6.4c-0.9-2.1-2.2-4.1-3.7-5.9
		c-2.6-3-5.8-5.4-9.4-7c-0.3-0.2-0.8,0-0.9,0.3c-0.2,0.3,0,0.8,0.3,0.9l0,0c3.4,1.6,6.4,3.9,8.9,6.7c2.6,3,4.3,6.6,4.8,10.6
		c0.2,3,0.7,5.9,1.5,8.8c0.1,0.4,0.5,0.6,0.9,0.5s0.6-0.5,0.5-0.9c-0.8-2.8-1.3-5.6-1.4-8.5c0,0,0,0,0,0v0
		c-0.2-3.9-0.1-7.8,0.1-11.7c0.1-2.4,0.2-4.9,0.3-7.4c0.8,0.5,1.7,0.7,2.7,0.7c1.6-0.1,3.2-0.5,4.6-1.2
		C43.8,46.4,51.1,37.8,54.3,27.5L54.3,27.5z M53,27.1c-9.8,13.9-18,19.2-22.4,21.2c5.4-4.7,16.1-14.4,22.9-22.8
		C53.3,26,53.1,26.5,53,27.1z M30,46.9c4.1-5.5,12.5-16.1,21-22.2c0.6-0.2,1.1-0.4,1.7-0.6C46.2,32.3,35.6,42,30,46.9L30,46.9z
		 M45.2,27.6c-5.8,5.4-11,11.3-15.7,17.6C33,37.9,38.4,31.8,45.2,27.6L45.2,27.6z M28.8,16.2c-0.6,3.3-2,6.4-4.1,9
		c2.4-6.2,3.6-12.7,3.7-19.4C29.3,9.2,29.4,12.7,28.8,16.2L28.8,16.2z M23.8,23.7c0.7-6.1,1.8-12.2,3.2-18.3
		C27,11.6,25.9,17.8,23.8,23.7L23.8,23.7z M23.2,10.9c0.4-2.7,1.4-5.4,2.9-7.7c-1.7,6.8-2.9,13.7-3.7,20.6
		C21.7,19.5,22.3,15.4,23.2,10.9L23.2,10.9z M19.6,30.1c0.7,1.2,1.4,2.4,2,3.6C17.7,28.8,11.6,22,5.5,18.2c2.4,0.6,4.7,1.6,6.7,3.2
		C15.2,23.8,17.7,26.7,19.6,30.1L19.6,30.1z M23.1,37.9C16.4,33.8,8.3,24,4.7,19.4C12.2,24,19.8,33.5,23.1,37.9L23.1,37.9z
		 M11.1,31.9c-2.4-2.6-4.6-5.5-6.5-8.4c-1-1.3-1.7-2.9-2-4.5c3,3.9,12.3,15.7,20.1,20.4C18.4,38.2,13.9,34.9,11.1,31.9L11.1,31.9z
		 M33.5,49.8c-1.4,0.7-3.7,1.5-5.5,0.8c2.3-0.5,11.3-3.5,22.9-18.5C47.4,39.8,41.2,46.1,33.5,49.8L33.5,49.8z"/>
</g>
<g>
	<g>
		<path class="st0" d="M16.2,39.4c-0.4-0.4-0.8-0.9-1.3-1.3c-0.2-0.2-0.4-0.4-0.5-0.4c-0.1,0-0.2,0-0.4,0.1
			c-0.2,0.1-0.4,0.2-0.6,0.5c0,0-0.1-0.1-0.1-0.1c0.8-0.8,1.7-1.6,2.5-2.4c0,0,0.1,0.1,0.1,0.1c-0.2,0.2-0.4,0.4-0.5,0.6
			c-0.1,0.1-0.1,0.3-0.1,0.4c0,0.1,0.2,0.3,0.4,0.5c0.9,0.9,1.7,1.8,2.6,2.7c0.2,0.2,0.4,0.4,0.5,0.4c0.1,0,0.2,0,0.4-0.1
			c0.1-0.1,0.3-0.2,0.5-0.4c0,0,0.1,0.1,0.1,0.1c-0.8,0.7-1.5,1.4-2.3,2.2c0,0-0.1-0.1-0.1-0.1c0.2-0.2,0.4-0.4,0.4-0.5
			c0.1-0.1,0.1-0.3,0.1-0.4c0-0.1-0.2-0.3-0.4-0.5c-0.4-0.4-0.7-0.8-1.1-1.1c-0.4,0.9-0.9,1.6-1.3,2c-0.3,0.3-0.6,0.5-0.9,0.7
			c-0.3,0.1-0.5,0.2-0.7,0.1c-0.2-0.1-0.4-0.2-0.8-0.6c-0.3-0.2-0.5-0.4-0.8-0.7c-0.2-0.2-0.4-0.3-0.5-0.4c-0.1,0-0.2,0-0.4,0.1
			c-0.2,0.1-0.3,0.3-0.5,0.5c0,0-0.1-0.1-0.1-0.1c0.8-0.9,1.6-1.8,2.4-2.6c0,0,0.1,0.1,0.1,0.1c-0.2,0.2-0.4,0.5-0.5,0.6
			c-0.1,0.2-0.1,0.3,0,0.4c0,0.1,0.2,0.3,0.4,0.5c0.2,0.2,0.4,0.4,0.6,0.6c0.3,0.3,0.5,0.4,0.7,0.5c0.2,0.1,0.3,0.1,0.5,0
			c0.2-0.1,0.4-0.2,0.6-0.4C15.5,40.6,15.8,40,16.2,39.4z"/>
		<path class="st0" d="M21.3,32.5c-0.2-0.3-0.4-0.4-0.6-0.4c-0.2,0-0.5,0.2-0.8,0.4c0,0-0.1-0.1-0.1-0.1c0.9-0.7,1.8-1.4,2.8-2
			c0,0,0.1,0.1,0.1,0.1c-0.4,0.3-0.6,0.5-0.7,0.7c0,0.2,0,0.4,0.3,0.7c0.7,1,1.5,2.1,2.2,3.1c0.2,0.3,0.4,0.5,0.6,0.5
			c0.2,0,0.4-0.1,0.8-0.3c0,0,0.1,0.1,0.1,0.1c-0.8,0.6-1.7,1.2-2.5,1.8c0,0-0.1-0.1-0.1-0.1c0.4-0.3,0.5-0.5,0.6-0.7
			c0-0.2-0.1-0.4-0.3-0.7c-0.7-0.9-1.3-1.8-2-2.8c-0.3,1.7-0.5,3.3-0.6,4.9c0.2,0.2,0.3,0.3,0.4,0.4c0.1,0,0.2,0,0.3,0
			c0.1,0,0.3-0.2,0.6-0.4c0,0,0.1,0.1,0.1,0.1c-0.8,0.6-1.6,1.3-2.4,2c0,0-0.1-0.1-0.1-0.1c0.3-0.3,0.5-0.5,0.5-0.7
			c0-0.2-0.1-0.4-0.3-0.7c-0.8-1-1.6-1.9-2.5-2.9c-0.3-0.3-0.5-0.4-0.6-0.4c-0.2,0-0.4,0.2-0.8,0.5c0,0-0.1-0.1-0.1-0.1
			c0.9-0.8,1.7-1.5,2.6-2.2c0,0,0.1,0.1,0.1,0.1c-0.4,0.3-0.6,0.6-0.6,0.7c0,0.2,0.1,0.4,0.3,0.7c0.7,0.9,1.5,1.8,2.2,2.6
			C20.9,35.8,21.1,34.1,21.3,32.5z"/>
		<path class="st0" d="M28.8,26.6c0.4,0.6,0.7,1.1,1.1,1.7c-0.1,0-0.1,0.1-0.2,0.1c-0.5-0.4-1-0.7-1.5-0.7c-0.5,0-1,0.1-1.6,0.4
			c-0.4,0.3-0.8,0.6-1,1c-0.3,0.4-0.4,0.8-0.3,1.3c0,0.5,0.2,1,0.6,1.6c0.3,0.5,0.6,0.8,1,1c0.4,0.2,0.8,0.3,1.3,0.3
			c0.5,0,0.9-0.2,1.4-0.4c0.4-0.2,0.7-0.5,0.9-0.8c0.2-0.3,0.4-0.8,0.6-1.4c0.1,0,0.1,0,0.2,0c-0.1,0.6-0.3,1.2-0.6,1.6
			c-0.3,0.4-0.7,0.8-1.3,1.1c-1,0.6-2,0.7-2.9,0.5c-0.7-0.2-1.3-0.6-1.7-1.2c-0.3-0.5-0.5-1-0.5-1.6c0-0.6,0.2-1.2,0.6-1.7
			c0.4-0.6,0.9-1,1.5-1.4c0.5-0.3,1-0.5,1.6-0.5c0.2,0,0.3,0,0.3-0.1c0.1,0,0.2-0.1,0.2-0.2c0.1-0.1,0.1-0.2,0-0.4
			C28.7,26.6,28.7,26.6,28.8,26.6z"/>
		<path class="st0" d="M35.7,23.7c0.2,0.4,0.4,0.9,0.6,1.3c-0.1,0-0.1,0-0.2,0.1c-0.1-0.2-0.2-0.4-0.3-0.4c-0.2-0.1-0.4-0.2-0.6-0.2
			c-0.2,0-0.5,0-0.8,0.2c-0.3,0.1-0.7,0.3-1,0.4c0.6,1.4,1.2,2.8,1.7,4.2c0.1,0.3,0.3,0.5,0.4,0.6c0.2,0.1,0.4,0,0.6-0.1
			c0.1,0,0.1-0.1,0.2-0.1c0,0.1,0,0.1,0.1,0.2c-0.9,0.4-1.8,0.7-2.7,1.1c0,0,0-0.1-0.1-0.1c0.1,0,0.1-0.1,0.2-0.1
			c0.3-0.1,0.4-0.3,0.5-0.5c0-0.1,0-0.3-0.2-0.6c-0.6-1.4-1.2-2.8-1.8-4.2c-0.3,0.1-0.6,0.2-0.8,0.4c-0.3,0.1-0.5,0.3-0.7,0.4
			c-0.2,0.1-0.3,0.3-0.3,0.5c-0.1,0.2,0,0.4,0.1,0.7c-0.1,0-0.1,0.1-0.2,0.1c-0.2-0.4-0.4-0.9-0.5-1.3
			C31.8,25.2,33.7,24.4,35.7,23.7z"/>
		<path class="st0" d="M42.1,25.9c-0.9,0.2-1.8,0.5-2.6,0.8c-0.1,0.3-0.1,0.7-0.2,1c0,0.3,0,0.4,0,0.5c0,0.1,0.1,0.1,0.2,0.2
			c0.1,0,0.3,0,0.7-0.1c0,0.1,0,0.1,0,0.2c-0.7,0.2-1.4,0.4-2.1,0.7c0-0.1,0-0.1-0.1-0.2c0.3-0.1,0.4-0.3,0.5-0.3
			c0.1-0.2,0.2-0.5,0.3-1c0.3-1.8,0.6-3.6,1-5.4c0.1,0,0.1,0,0.2-0.1c1.3,1.4,2.5,2.7,3.7,4.2c0.3,0.3,0.5,0.6,0.7,0.6
			c0.2,0.1,0.4,0.1,0.7,0.1c0,0.1,0,0.1,0,0.2c-0.9,0.2-1.8,0.4-2.6,0.6c0-0.1,0-0.1,0-0.2c0.3-0.1,0.4-0.2,0.5-0.3
			c0.1-0.1,0.1-0.2,0.1-0.3c0-0.1-0.1-0.3-0.3-0.5C42.5,26.3,42.3,26.1,42.1,25.9z M41.8,25.6c-0.6-0.7-1.2-1.3-1.8-2
			c-0.2,0.9-0.4,1.8-0.5,2.7C40.3,26,41.1,25.8,41.8,25.6z"/>
		<path class="st0" d="M45.1,27c0.4-0.1,0.6-0.3,0.8-0.4c0.2-0.2,0.4-0.5,0.7-0.9c0.4-0.6,0.8-1.3,1.2-1.9c-0.6,0-1.1-0.1-1.4-0.3
			c-0.3-0.2-0.5-0.5-0.6-0.9c-0.1-0.3,0-0.7,0.2-0.9c0.2-0.3,0.5-0.5,0.9-0.7c0.4-0.2,0.9-0.3,1.7-0.4c0.9-0.1,1.8-0.2,2.7-0.3
			c0,0.1,0,0.1,0,0.2c-0.1,0-0.2,0-0.3,0c-0.3,0-0.5,0.1-0.6,0.3c-0.1,0.1-0.1,0.3-0.1,0.7c0.1,1.3,0.3,2.6,0.4,3.8
			c0,0.3,0.1,0.5,0.2,0.6c0.1,0.2,0.4,0.2,0.6,0.2c0.1,0,0.2,0,0.3,0c0,0.1,0,0.1,0,0.2c-1,0.1-1.9,0.2-2.9,0.3c0-0.1,0-0.1,0-0.2
			c0.1,0,0.2,0,0.3,0c0.3,0,0.4-0.1,0.5-0.3c0.1-0.1,0.1-0.3,0.1-0.7c-0.1-0.6-0.1-1.1-0.2-1.7c-0.1,0-0.1,0-0.2,0
			c-0.1,0-0.1,0-0.1,0c-0.1,0-0.3,0-0.4,0c-0.7,1-1.3,2.1-1.9,3.1c-0.6,0.1-1.2,0.2-1.8,0.3C45.1,27.1,45.1,27.1,45.1,27z
			 M49.3,20.9c-0.4,0-0.7,0-0.9,0c-0.5,0.1-0.8,0.2-1.1,0.5c-0.3,0.3-0.3,0.6-0.3,1c0.1,0.4,0.3,0.7,0.7,0.8
			c0.4,0.2,0.9,0.2,1.6,0.2c0,0,0.1,0,0.1,0c0,0,0.1,0,0.2,0C49.5,22.5,49.4,21.7,49.3,20.9z"/>
		<path class="st0" d="M60.2,20.5c-1.2-0.1-2.3-0.1-3.5-0.1c0,1.5,0,3,0,4.5c0,0.4,0.1,0.6,0.2,0.7c0.1,0.1,0.4,0.2,0.8,0.2
			c0,0.1,0,0.1,0,0.2c-1,0-2,0-2.9,0c0-0.1,0-0.1,0-0.2c0.4,0,0.7-0.1,0.8-0.2c0.1-0.1,0.2-0.4,0.2-0.7c0-1.3,0-2.5-0.1-3.8
			c0-0.4-0.1-0.6-0.2-0.7c-0.1-0.1-0.4-0.2-0.9-0.2c0-0.1,0-0.1,0-0.2c2.6-0.1,5.2,0,7.8,0.2c0,0.1,0,0.1,0,0.2
			c-0.5,0-0.8,0-0.9,0.1c-0.1,0.1-0.2,0.3-0.3,0.7c-0.1,1.3-0.2,2.5-0.3,3.8c0,0.4,0,0.6,0.1,0.8c0.1,0.1,0.4,0.2,0.8,0.2
			c0,0.1,0,0.1,0,0.2c-1-0.1-1.9-0.2-2.9-0.2c0-0.1,0-0.1,0-0.2c0.4,0,0.7,0,0.8-0.1c0.1-0.1,0.2-0.3,0.2-0.7
			C60,23.5,60.1,22,60.2,20.5z"/>
		<path class="st0" d="M64.5,23.7c-0.1,0.6-0.2,1.1-0.2,1.7c-0.1,0.4,0,0.6,0,0.7c0.1,0.1,0.3,0.2,0.5,0.3c0.1,0,0.2,0,0.3,0
			c0,0.1,0,0.1,0,0.2c-1-0.2-1.9-0.3-2.9-0.4c0-0.1,0-0.1,0-0.2c0.1,0,0.2,0,0.3,0c0.3,0,0.5,0,0.6-0.2c0.1-0.1,0.1-0.3,0.2-0.6
			c0.2-1.3,0.3-2.5,0.5-3.8c0-0.4,0-0.6-0.1-0.7c-0.1-0.1-0.3-0.2-0.6-0.3c-0.1,0-0.2,0-0.3,0c0-0.1,0-0.1,0-0.2
			c0.9,0.1,1.8,0.2,2.7,0.3c0.7,0.1,1.2,0.2,1.6,0.4c0.4,0.2,0.7,0.4,0.9,0.7c0.2,0.3,0.3,0.6,0.2,1c-0.1,0.5-0.4,0.8-0.8,1.1
			c-0.4,0.2-1,0.3-1.7,0.2c-0.2,0-0.4-0.1-0.5-0.1C64.9,23.9,64.7,23.8,64.5,23.7z M64.5,23.5c0.2,0.1,0.3,0.1,0.5,0.1
			c0.1,0,0.3,0.1,0.4,0.1c0.4,0.1,0.7,0,1-0.2c0.3-0.2,0.5-0.5,0.6-0.8c0-0.3,0-0.5-0.1-0.7c-0.1-0.2-0.2-0.4-0.5-0.6
			c-0.2-0.1-0.5-0.2-0.8-0.3c-0.2,0-0.4,0-0.7,0C64.8,21.9,64.6,22.7,64.5,23.5z"/>
		<path class="st0" d="M74.3,23.7c0.1-0.3,0.1-0.6,0-0.7c-0.1-0.1-0.4-0.3-0.8-0.4c0-0.1,0-0.1,0-0.2c1.1,0.3,2.1,0.6,3.1,1
			c0,0.1,0,0.1-0.1,0.2c-0.4-0.1-0.8-0.2-0.9-0.1c-0.2,0.1-0.3,0.3-0.4,0.6c-0.4,1.2-0.8,2.4-1.2,3.6c-0.1,0.4-0.1,0.6-0.1,0.8
			c0.1,0.1,0.3,0.3,0.7,0.4c0,0.1,0,0.1-0.1,0.2c-0.9-0.3-1.9-0.6-2.8-0.9c0-0.1,0-0.1,0-0.2c0.4,0.1,0.7,0.1,0.8,0.1
			c0.1-0.1,0.3-0.3,0.4-0.7c0.3-1.1,0.7-2.2,1-3.3c-1.4,0.8-2.8,1.6-4.2,2.5c-0.1,0.2-0.1,0.4-0.1,0.5c0,0.1,0.1,0.2,0.2,0.3
			c0.1,0.1,0.3,0.2,0.6,0.3c0,0.1,0,0.1,0,0.2c-1-0.3-1.9-0.5-2.9-0.7c0-0.1,0-0.1,0-0.2c0.4,0.1,0.7,0.1,0.8,0
			c0.1-0.1,0.3-0.3,0.3-0.7c0.3-1.2,0.6-2.5,0.8-3.7c0.1-0.4,0.1-0.6,0-0.8c-0.1-0.1-0.4-0.3-0.8-0.4c0-0.1,0-0.1,0-0.2
			c1.1,0.2,2.1,0.5,3.2,0.8c0,0.1,0,0.1,0,0.2c-0.5-0.1-0.8-0.1-0.9-0.1c-0.2,0.1-0.3,0.3-0.4,0.7c-0.3,1.1-0.6,2.2-0.8,3.3
			C71.5,25.3,72.9,24.5,74.3,23.7z"/>
		<path class="st0" d="M77.9,27.3c-0.2,0.5-0.4,1.1-0.6,1.6c-0.1,0.3-0.2,0.6-0.1,0.7c0.1,0.2,0.2,0.3,0.5,0.4
			c0.1,0,0.2,0.1,0.2,0.1c0,0,0,0.1-0.1,0.1c-0.9-0.4-1.8-0.7-2.8-1.1c0-0.1,0-0.1,0.1-0.2c0.1,0,0.2,0.1,0.2,0.1
			c0.3,0.1,0.5,0.1,0.7,0c0.1-0.1,0.2-0.3,0.3-0.6c0.5-1.2,0.9-2.4,1.4-3.6c0.1-0.4,0.2-0.6,0.1-0.7c-0.1-0.2-0.3-0.3-0.5-0.4
			c-0.1,0-0.2-0.1-0.3-0.1c0-0.1,0-0.1,0.1-0.2c0.9,0.3,1.7,0.6,2.6,1c0.6,0.3,1.1,0.5,1.4,0.8c0.3,0.3,0.5,0.6,0.7,0.9
			c0.1,0.3,0.1,0.7,0,1c-0.2,0.4-0.6,0.7-1,0.8c-0.5,0.1-1.1,0-1.7-0.3c-0.2-0.1-0.3-0.2-0.5-0.2C78.3,27.5,78.1,27.4,77.9,27.3z
			 M78,27c0.2,0.1,0.3,0.2,0.4,0.2c0.1,0.1,0.2,0.1,0.3,0.2c0.3,0.1,0.7,0.2,1,0.1c0.3-0.1,0.6-0.3,0.7-0.7c0.1-0.2,0.1-0.5,0.1-0.7
			c0-0.3-0.1-0.5-0.3-0.7c-0.2-0.2-0.4-0.4-0.7-0.5c-0.2-0.1-0.4-0.1-0.7-0.2C78.6,25.5,78.3,26.3,78,27z"/>
		<path class="st0" d="M86.7,27.8c0.9,0.5,1.5,1.2,1.8,2.1c0.3,0.9,0.2,1.7-0.3,2.4c-0.5,0.8-1.2,1.2-2.1,1.3
			c-0.9,0.1-1.7,0-2.6-0.5c-0.8-0.5-1.4-1.1-1.7-1.9c-0.3-0.8-0.3-1.6,0.1-2.5c0.4-0.9,1.1-1.4,2.1-1.5
			C84.9,27.1,85.8,27.3,86.7,27.8z M86.4,28c-0.6-0.3-1.2-0.4-1.7-0.3C84,28,83.4,28.5,83,29.3c-0.4,0.9-0.6,1.6-0.4,2.3
			c0.1,0.5,0.5,0.9,1,1.2c0.6,0.3,1.1,0.4,1.7,0.3c0.6-0.1,1.2-0.6,1.7-1.4c0.5-0.9,0.7-1.6,0.5-2.3C87.4,28.9,87,28.4,86.4,28z"/>
		<path class="st0" d="M91.3,30.9c1.8,1.2,3.5,2.6,5.1,4c0,0-0.1,0.1-0.1,0.1c-0.4-0.3-0.7-0.5-0.8-0.5c-0.2,0-0.4,0.1-0.6,0.4
			c-0.7,0.8-1.4,1.7-2.1,2.5c-0.4,0.5-0.6,0.8-0.7,1c0,0.2,0.1,0.4,0.5,0.7c-0.4,0.5-0.8,0.9-1.2,1.4c0,0-0.1-0.1-0.1-0.1
			c0.2-0.4,0.3-0.8,0.3-1.1c0-0.4-0.1-0.7-0.3-0.9c-0.2-0.3-0.4-0.5-0.7-0.8c-0.5-0.4-1-0.7-1.4-1.1c-0.6-0.5-1.2-0.7-1.7-0.6
			c-0.5,0.1-0.9,0.3-1.2,0.6c0,0-0.1-0.1-0.1-0.1c0.3-0.5,0.7-1,1-1.6c0.5,0.3,1,0.3,1.6,0.1c0.6-0.2,1.2-0.6,1.7-1.1
			c0.6-0.5,1-1,1.3-1.4c0.2-0.2,0.3-0.4,0.3-0.6c0-0.2,0-0.3-0.1-0.4c-0.1-0.1-0.3-0.3-0.6-0.5C91.2,31,91.3,31,91.3,30.9z
			 M92.6,32.3c-1.1,1.3-2,2.2-2.6,2.6c-0.6,0.4-1.2,0.7-1.8,0.8c0.7,0.5,1.4,1,2.1,1.6c0.4,0.3,0.6,0.4,0.7,0.4
			c0.1,0,0.3-0.1,0.5-0.4c0.9-1.2,1.9-2.4,2.8-3.5C93.9,33.2,93.3,32.8,92.6,32.3z"/>
		<path class="st0" d="M97.7,41.7c-0.7-0.7-1.4-1.4-2.1-2.1c-0.3,0.1-0.7,0.2-1,0.3c-0.2,0.1-0.4,0.2-0.5,0.3
			c-0.1,0.1-0.1,0.2,0,0.3c0,0.1,0.2,0.3,0.4,0.6c0,0-0.1,0.1-0.1,0.1c-0.6-0.5-1.1-1-1.7-1.5c0,0,0.1-0.1,0.1-0.1
			c0.3,0.2,0.4,0.3,0.6,0.3c0.2,0,0.6-0.1,1-0.2c1.7-0.6,3.5-1.2,5.4-1.6c0,0.1,0.1,0.1,0.1,0.2c-0.5,1.8-1.1,3.6-1.7,5.4
			C98,43.9,98,44.2,98,44.4c0,0.2,0.1,0.4,0.3,0.7c0,0-0.1,0.1-0.1,0.1c-0.6-0.7-1.3-1.5-2-2.2c0,0,0.1-0.1,0.1-0.1
			c0.2,0.2,0.4,0.3,0.5,0.4c0.1,0,0.2,0,0.3-0.1c0.1-0.1,0.2-0.3,0.3-0.6C97.5,42.3,97.6,42,97.7,41.7z M97.9,41.4
			c0.3-0.9,0.5-1.7,0.8-2.6c-0.9,0.2-1.8,0.5-2.6,0.8C96.7,40.1,97.3,40.7,97.9,41.4z"/>
	</g>
</g>
<g>
	<g>
		<path class="st0" d="M15.2,110c0.5-0.4,1-0.8,1.5-1.3c0,0.1,0.1,0.1,0.1,0.2c-0.1,0.2-0.1,0.4,0,0.5c0.1,0.1,0.2,0.2,0.5,0.3
			c0.4,0.2,0.8,0.5,1.1,0.9c0.5,0.5,0.7,1,0.8,1.5c0.1,0.5-0.1,0.9-0.4,1.2c-0.3,0.3-0.6,0.4-1,0.4c-0.4,0-0.9-0.2-1.3-0.4
			c0.3,0.5,0.5,0.9,0.6,1.4c0,0.5-0.1,0.9-0.4,1.2c-0.4,0.4-0.9,0.5-1.5,0.4c-0.6-0.2-1.3-0.5-1.9-1.2c-0.9-0.9-1.2-2-1-3.1
			c0.1,0,0.2,0.1,0.2,0.1c-0.1,0.3,0,0.7,0.1,1.2c0.1,0.4,0.4,0.9,0.7,1.2c0.4,0.4,0.8,0.7,1.2,0.7c0.4,0,0.8-0.1,1.1-0.4
			c0.3-0.3,0.4-0.7,0.4-1.2c-0.1-0.5-0.4-1-1-1.7c0.1-0.1,0.2-0.1,0.2-0.2c0.4,0.5,0.8,0.8,1.1,0.9c0.3,0.2,0.6,0.2,0.9,0.2
			c0.3,0,0.6-0.1,0.8-0.4c0.3-0.3,0.4-0.6,0.3-0.9c0-0.3-0.2-0.7-0.5-1c-0.4-0.4-0.8-0.6-1.2-0.7c-0.4-0.1-0.8,0-1.2,0.2
			C15.3,110.1,15.3,110.1,15.2,110z"/>
		<path class="st0" d="M21.9,114.6c-0.6,0.7-1.1,1.3-1.7,2c0.5,0.4,0.9,0.8,1.4,1.1c0.4,0.3,0.6,0.4,0.8,0.4c0.3,0,0.5-0.1,0.8-0.4
			c0.1,0,0.1,0.1,0.2,0.1c-0.5,0.6-0.9,1.2-1.4,1.9c-0.1,0-0.1-0.1-0.2-0.1c0.1-0.3,0.2-0.5,0.2-0.6c0-0.1,0-0.3-0.1-0.4
			c-0.1-0.2-0.3-0.3-0.5-0.5c-0.5-0.4-0.9-0.8-1.4-1.1c-0.5,0.6-0.9,1.1-1.4,1.7c-0.2,0.2-0.3,0.4-0.3,0.4c0,0.1,0,0.1,0,0.2
			c0,0.1,0.2,0.2,0.3,0.4c0.4,0.3,0.8,0.6,1.1,0.9c0.4,0.3,0.7,0.5,0.9,0.6c0.2,0.1,0.4,0.1,0.7,0.1c0.3,0,0.7-0.1,1.2-0.3
			c0.1,0,0.1,0.1,0.2,0.1c-0.5,0.3-1,0.6-1.6,0.9c-1.8-1.3-3.5-2.7-5.2-4.3c0,0,0.1-0.1,0.1-0.1c0.1,0.1,0.2,0.1,0.2,0.2
			c0.2,0.1,0.3,0.2,0.5,0.3c0.1,0.1,0.3,0.1,0.4,0c0.1,0,0.3-0.2,0.5-0.4c0.9-1.1,1.9-2.2,2.8-3.2c0.3-0.3,0.4-0.5,0.4-0.7
			c0-0.2-0.1-0.4-0.4-0.6c-0.1-0.1-0.1-0.1-0.2-0.2c0,0,0.1-0.1,0.1-0.1c1.5,1.4,3,2.6,4.6,3.8c-0.3,0.4-0.5,0.8-0.8,1.2
			c-0.1,0-0.1-0.1-0.2-0.1c0.1-0.3,0.2-0.6,0.2-0.7c0-0.2-0.1-0.3-0.2-0.5c-0.1-0.1-0.3-0.3-0.6-0.5C23,115.6,22.5,115.1,21.9,114.6
			z"/>
		<path class="st0" d="M30.3,120.4c-0.7-0.4-1.4-0.8-2-1.2c-0.3,0.5-0.6,1.1-1,1.6c-1,1.6-1.8,2.5-2.4,2.8c-0.6,0.3-1.3,0.2-1.9-0.2
			c-0.3-0.2-0.4-0.4-0.5-0.6c-0.1-0.2-0.1-0.4,0-0.5c0.1-0.1,0.2-0.2,0.3-0.2c0.1,0,0.3,0,0.4,0.1c0.1,0.1,0.2,0.2,0.3,0.4
			c0.1,0.2,0.2,0.3,0.3,0.4c0.3,0.2,0.7,0.2,1.1-0.1c0.4-0.3,1-1,1.7-2.1c0.2-0.4,0.5-0.8,0.7-1.2c0.2-0.4,0.3-0.6,0.3-0.8
			c0-0.2-0.3-0.4-0.7-0.7c0-0.1,0.1-0.1,0.1-0.2c1.7,1.1,3.5,2.1,5.3,3c0,0.1-0.1,0.1-0.1,0.2c-0.4-0.2-0.7-0.3-0.9-0.2
			c-0.2,0-0.4,0.3-0.6,0.6c-0.6,1.2-1.3,2.5-1.9,3.7c-0.2,0.4-0.3,0.7-0.2,0.8c0.1,0.2,0.3,0.4,0.8,0.6c0,0.1-0.1,0.1-0.1,0.2
			c-1.1-0.5-2.2-1.1-3.2-1.7c0-0.1,0.1-0.1,0.1-0.2c0.5,0.3,0.8,0.4,1,0.3c0.2,0,0.4-0.2,0.6-0.6C28.7,123.3,29.5,121.8,30.3,120.4z
			"/>
		<path class="st0" d="M34.5,122.4c-0.3,0.8-0.7,1.6-1,2.4c0.5,0.2,1.1,0.4,1.6,0.7c0.4,0.2,0.7,0.2,0.9,0.2
			c0.2-0.1,0.4-0.3,0.6-0.6c0.1,0,0.1,0,0.2,0.1c-0.3,0.7-0.5,1.4-0.8,2.2c-0.1,0-0.1,0-0.2-0.1c0.1-0.3,0.1-0.5,0.1-0.6
			c0-0.1-0.1-0.3-0.2-0.4c-0.1-0.1-0.3-0.2-0.7-0.4c-0.5-0.2-1.1-0.4-1.6-0.7c-0.3,0.7-0.6,1.3-0.9,2c-0.1,0.3-0.2,0.4-0.2,0.5
			c0,0.1,0,0.1,0.1,0.2c0.1,0.1,0.2,0.1,0.4,0.2c0.4,0.2,0.9,0.4,1.3,0.5c0.4,0.2,0.8,0.3,1,0.3c0.2,0,0.4,0,0.7-0.1
			c0.3-0.1,0.6-0.3,1-0.6c0.1,0,0.2,0.1,0.2,0.1c-0.4,0.5-0.8,0.9-1.2,1.3c-2-0.7-4-1.5-6-2.5c0-0.1,0.1-0.1,0.1-0.2
			c0.1,0,0.2,0.1,0.3,0.1c0.2,0.1,0.4,0.1,0.6,0.1c0.1,0,0.3,0,0.3-0.1c0.1-0.1,0.2-0.3,0.3-0.6c0.6-1.3,1.2-2.6,1.8-3.9
			c0.2-0.4,0.2-0.6,0.2-0.8c-0.1-0.2-0.2-0.3-0.5-0.5c-0.1,0-0.2-0.1-0.2-0.1c0-0.1,0.1-0.1,0.1-0.2c1.7,0.8,3.5,1.6,5.3,2.2
			c-0.1,0.5-0.3,0.9-0.4,1.4c-0.1,0-0.1,0-0.2-0.1c0-0.4,0-0.6,0-0.8c0-0.2-0.1-0.3-0.3-0.4c-0.1-0.1-0.4-0.2-0.7-0.3
			C35.8,123,35.2,122.7,34.5,122.4z"/>
		<path class="st0" d="M40.3,127.3c1.2,0.3,2.4,0.6,3.5,0.8c0.1-0.6,0.3-1.2,0.4-1.9c0.1-0.3,0.1-0.6,0.1-0.7c0-0.1-0.1-0.2-0.2-0.3
			c-0.1-0.1-0.3-0.2-0.5-0.2c-0.1,0-0.2,0-0.3-0.1c0-0.1,0-0.1,0-0.2c1,0.2,2.1,0.4,3.1,0.6c0,0.1,0,0.1,0,0.2c-0.1,0-0.2,0-0.3,0
			c-0.2,0-0.3,0-0.5,0c-0.1,0-0.2,0.1-0.3,0.2c-0.1,0.1-0.1,0.3-0.2,0.6c-0.3,1.4-0.5,2.8-0.8,4.2c-0.1,0.3-0.1,0.6,0,0.7
			c0,0.1,0.1,0.2,0.2,0.3c0.2,0.1,0.3,0.2,0.5,0.2c0.1,0,0.2,0,0.3,0c0,0.1,0,0.1,0,0.2c-1.2-0.2-2.3-0.4-3.5-0.7c0-0.1,0-0.1,0-0.2
			c0.1,0,0.2,0,0.3,0.1c0.3,0.1,0.6,0,0.8-0.1c0.1-0.1,0.2-0.3,0.3-0.7c0.1-0.7,0.3-1.3,0.4-2c-1.2-0.2-2.4-0.5-3.6-0.9
			c-0.2,0.6-0.4,1.3-0.5,1.9c-0.1,0.3-0.1,0.5-0.1,0.7c0,0.1,0.1,0.2,0.2,0.3c0.1,0.1,0.3,0.2,0.5,0.3c0.1,0,0.2,0,0.3,0.1
			c0,0.1,0,0.1,0,0.2c-1.2-0.3-2.3-0.6-3.4-1c0-0.1,0-0.1,0.1-0.2c0.1,0,0.2,0.1,0.3,0.1c0.3,0.1,0.6,0.1,0.8,0
			c0.1-0.1,0.2-0.3,0.4-0.7c0.4-1.4,0.8-2.7,1.2-4.1c0.1-0.3,0.1-0.5,0.1-0.7c0-0.1-0.1-0.2-0.2-0.3c-0.1-0.1-0.3-0.2-0.4-0.3
			c-0.1,0-0.2-0.1-0.3-0.1c0-0.1,0-0.1,0.1-0.2c1,0.3,2,0.6,3,0.9c0,0.1,0,0.1,0,0.2c-0.1,0-0.2,0-0.3-0.1c-0.2,0-0.3-0.1-0.5,0
			c-0.1,0-0.2,0.1-0.3,0.2c-0.1,0.1-0.1,0.3-0.2,0.6C40.6,126.1,40.5,126.7,40.3,127.3z"/>
		<path class="st0" d="M48.7,128.8c0.1,0,0.2,0,0.3,0c0.9,0.1,1.6,0.2,2.1,0.3c0.4,0.1,0.8,0.3,1.1,0.6c0.3,0.3,0.4,0.7,0.4,1.1
			c0,0.5-0.3,0.9-0.7,1.3c-0.5,0.3-1.3,0.5-2.4,0.4c-1.2-0.1-2.3-0.2-3.5-0.4c0-0.1,0-0.1,0-0.2c0.5,0.1,0.8,0,1-0.1
			c0.2-0.1,0.3-0.4,0.3-0.8c0.2-1.4,0.4-2.8,0.5-4.2c0.1-0.4,0-0.7-0.1-0.8c-0.1-0.1-0.4-0.2-0.8-0.3c0-0.1,0-0.1,0-0.2
			c1,0.2,2.1,0.3,3.1,0.4c0,0.1,0,0.1,0,0.2c-0.5,0-0.8,0-0.9,0.1c-0.1,0.1-0.2,0.4-0.3,0.8C48.8,127.7,48.8,128.2,48.7,128.8z
			 M48.3,132.1c0.4,0.1,0.6,0.1,0.8,0.2c0.5,0,1-0.1,1.4-0.3c0.4-0.2,0.6-0.6,0.7-1.1c0-0.5-0.2-0.9-0.5-1.1
			c-0.4-0.3-0.9-0.4-1.5-0.5c-0.2,0-0.3,0-0.5,0C48.5,130.2,48.4,131.1,48.3,132.1z M56.4,132.6c0,0.1,0,0.1,0,0.2
			c-1.2,0-2.4,0-3.6,0c0-0.1,0-0.1,0-0.2c0.1,0,0.2,0,0.2,0c0.2,0,0.4,0,0.6-0.1c0.2-0.1,0.3-0.1,0.3-0.3c0-0.1,0.1-0.3,0.1-0.6
			c0-1.4,0-2.9,0-4.3c0-0.3,0-0.5-0.1-0.6c0-0.1-0.1-0.2-0.3-0.3c-0.1-0.1-0.3-0.1-0.6-0.1c-0.1,0-0.1,0-0.2,0c0-0.1,0-0.1,0-0.2
			c1,0,2.1,0,3.1,0c0,0.1,0,0.1,0,0.2c-0.1,0-0.1,0-0.2,0c-0.2,0-0.4,0-0.5,0.1c-0.1,0.1-0.2,0.1-0.3,0.3c0,0.1-0.1,0.3-0.1,0.6
			c0,1.4,0,2.9,0.1,4.3c0,0.4,0.1,0.7,0.2,0.8c0.1,0.1,0.4,0.2,0.8,0.2C56.3,132.6,56.3,132.6,56.4,132.6z"/>
		<path class="st0" d="M58.7,126.3c0.1,0.9,0.1,1.7,0.2,2.6c0.6,0,1.1-0.1,1.7-0.2c0.4-0.1,0.7-0.1,0.9-0.3c0.2-0.2,0.2-0.5,0.2-0.8
			c0.1,0,0.1,0,0.2,0c0.1,0.8,0.2,1.5,0.3,2.3c-0.1,0-0.1,0-0.2,0c-0.1-0.3-0.2-0.5-0.2-0.6c-0.1-0.1-0.2-0.2-0.4-0.2
			c-0.2,0-0.4,0-0.7,0c-0.6,0.1-1.1,0.1-1.7,0.2c0.1,0.7,0.1,1.5,0.2,2.2c0,0.3,0.1,0.5,0.1,0.5c0,0.1,0.1,0.1,0.2,0.1
			c0.1,0,0.2,0,0.5,0c0.5,0,0.9-0.1,1.4-0.2c0.5-0.1,0.8-0.1,1-0.2c0.2-0.1,0.4-0.2,0.6-0.4c0.2-0.2,0.4-0.6,0.6-1
			c0.1,0,0.2,0,0.2,0c-0.1,0.6-0.3,1.2-0.4,1.8c-2.1,0.3-4.2,0.5-6.4,0.6c0-0.1,0-0.1,0-0.2c0.1,0,0.2,0,0.3,0
			c0.2,0,0.4-0.1,0.5-0.1c0.1-0.1,0.2-0.1,0.2-0.2c0-0.1,0.1-0.3,0-0.6c-0.1-1.4-0.2-2.9-0.3-4.3c0-0.4-0.1-0.7-0.2-0.8
			c-0.1-0.1-0.4-0.2-0.7-0.2c-0.1,0-0.2,0-0.3,0c0-0.1,0-0.1,0-0.2c1.9-0.1,3.8-0.3,5.6-0.6c0.1,0.5,0.2,0.9,0.3,1.4
			c-0.1,0-0.1,0-0.2,0c-0.1-0.3-0.3-0.6-0.4-0.7c-0.1-0.1-0.3-0.2-0.5-0.2c-0.2,0-0.4,0-0.8,0C60.1,126.2,59.4,126.3,58.7,126.3z"/>
		<path class="st0" d="M71.5,123.6c-1.1,0.4-2.2,0.7-3.3,1c0.5,1.6,0.9,3.2,1.4,4.9c0.1,0.4,0.3,0.7,0.4,0.7c0.2,0.1,0.5,0,1-0.1
			c0,0.1,0,0.1,0.1,0.2c-1.2,0.3-2.3,0.7-3.5,0.9c0-0.1,0-0.1,0-0.2c0.5-0.1,0.8-0.3,0.9-0.4c0.1-0.1,0.1-0.4,0-0.9
			c-0.4-1.4-0.7-2.7-1.1-4.1c-0.1-0.4-0.2-0.7-0.4-0.8c-0.2-0.1-0.5-0.1-0.9,0c0-0.1,0-0.1,0-0.2c2.5-0.6,4.9-1.4,7.3-2.3
			c0,0.1,0,0.1,0.1,0.2c-0.4,0.2-0.7,0.4-0.8,0.5c-0.1,0.2,0,0.4,0.1,0.8c0.5,1.3,1,2.6,1.5,3.9c0.2,0.4,0.3,0.6,0.5,0.7
			c0.2,0.1,0.5,0,1-0.2c0,0.1,0,0.1,0.1,0.2c-1.1,0.5-2.3,0.9-3.4,1.2c0-0.1,0-0.1-0.1-0.2c0.5-0.2,0.8-0.3,0.9-0.5
			c0.1-0.2,0.1-0.4-0.1-0.9C72.6,126.8,72.1,125.2,71.5,123.6z"/>
		<path class="st0" d="M77.2,120.6c0.9-0.4,1.8-0.6,2.7-0.4c1,0.2,1.7,0.7,2.2,1.5c0.5,0.9,0.6,1.8,0.3,2.8c-0.4,1-1.1,1.8-2.1,2.3
			c-1,0.5-2.1,0.7-3.1,0.4c-1-0.3-1.7-0.9-2-1.9c-0.4-1-0.3-1.9,0.1-2.9C75.7,121.6,76.4,121,77.2,120.6z M77.3,120.9
			c-0.6,0.3-1,0.7-1.2,1.3c-0.2,0.7-0.1,1.5,0.3,2.5c0.4,1,1,1.6,1.8,1.9c0.6,0.2,1.2,0.2,1.9-0.2c0.7-0.4,1.2-0.9,1.4-1.6
			c0.2-0.7,0.1-1.5-0.5-2.4c-0.6-1-1.2-1.6-1.9-1.8C78.5,120.5,77.9,120.6,77.3,120.9z"/>
		<path class="st0" d="M85.5,115.9c-0.6,0.5-1.3,1-1.9,1.4c0.4,0.5,0.7,1,1.1,1.5c1.1,1.5,1.6,2.6,1.6,3.3c0,0.7-0.4,1.3-1,1.7
			c-0.3,0.2-0.5,0.2-0.7,0.2c-0.2,0-0.3-0.1-0.4-0.2c-0.1-0.1-0.1-0.2,0-0.4c0-0.1,0.1-0.2,0.3-0.3c0.1-0.1,0.3-0.1,0.5-0.1
			c0.2,0,0.4-0.1,0.5-0.1c0.3-0.2,0.4-0.6,0.3-1.1c-0.1-0.5-0.5-1.3-1.2-2.4c-0.3-0.4-0.5-0.8-0.8-1.1c-0.2-0.4-0.5-0.5-0.6-0.6
			c-0.2,0-0.5,0.1-0.9,0.3c0-0.1-0.1-0.1-0.1-0.2c1.7-1.1,3.4-2.4,4.9-3.7c0,0,0.1,0.1,0.1,0.1c-0.4,0.3-0.6,0.6-0.6,0.7
			c0,0.2,0.1,0.4,0.4,0.8c0.9,1.1,1.8,2.2,2.7,3.3c0.3,0.3,0.5,0.5,0.7,0.5c0.2,0,0.5-0.2,0.9-0.5c0,0,0.1,0.1,0.1,0.1
			c-1,0.8-1.9,1.6-2.9,2.3c0,0-0.1-0.1-0.1-0.1c0.4-0.3,0.7-0.6,0.7-0.8c0-0.2-0.1-0.4-0.3-0.8C87.6,118.6,86.6,117.2,85.5,115.9z"
			/>
		<path class="st0" d="M91.3,119c0.3-0.3,0.6-0.7,0.7-1c0.1-0.3,0.2-0.8,0.2-1.4c0-0.9,0-1.7,0-2.6c-0.6,0.4-1.1,0.6-1.6,0.6
			c-0.4,0-0.8-0.1-1.1-0.4c-0.3-0.3-0.4-0.6-0.4-1c0-0.4,0.1-0.8,0.3-1.1c0.2-0.4,0.6-0.8,1.2-1.4c0.7-0.7,1.3-1.4,2-2.2
			c0,0,0.1,0.1,0.1,0.1c-0.1,0.1-0.1,0.2-0.2,0.2c-0.2,0.2-0.3,0.4-0.3,0.7c0,0.1,0.2,0.4,0.5,0.6c1.1,1,2.1,1.9,3.2,2.9
			c0.3,0.3,0.5,0.4,0.6,0.4c0.2,0,0.5-0.1,0.7-0.4c0.1-0.1,0.1-0.2,0.2-0.3c0,0,0.1,0.1,0.1,0.1c-0.8,1-1.7,1.9-2.6,2.9
			c0,0-0.1-0.1-0.1-0.1c0.1-0.1,0.2-0.2,0.2-0.3c0.2-0.2,0.4-0.5,0.4-0.7c0-0.2-0.1-0.4-0.4-0.7c-0.5-0.4-0.9-0.9-1.4-1.3
			c0,0.1-0.1,0.1-0.1,0.1c0,0-0.1,0.1-0.1,0.1c-0.1,0.1-0.2,0.2-0.4,0.4c0.1,1.4,0.1,2.8,0.1,4.3c-0.6,0.5-1.2,1.1-1.8,1.6
			C91.4,119.1,91.3,119.1,91.3,119z M91.5,110.6c-0.3,0.2-0.5,0.4-0.7,0.6c-0.4,0.4-0.6,0.8-0.6,1.2c0,0.4,0.1,0.8,0.4,1.1
			c0.3,0.3,0.7,0.4,1.2,0.3c0.5-0.1,1-0.4,1.6-1c0,0,0.1-0.1,0.1-0.1c0,0,0.1-0.1,0.1-0.2C92.8,111.8,92.1,111.2,91.5,110.6z"/>
	</g>
</g>
</svg>
