<?xml version="1.0" encoding="utf-8"?>
<!-- Generator: Adobe Illustrator 24.0.1, SVG Export Plug-In . SVG Version: 6.00 Build 0)  -->
<svg version="1.1" id="Слой_1" xmlns="http://www.w3.org/2000/svg" xmlns:xlink="http://www.w3.org/1999/xlink" x="0px" y="0px"
	 viewBox="0 0 123.4 136.2" style="enable-background:new 0 0 123.4 136.2;" xml:space="preserve">
<style type="text/css">
	.st0{fill:#374B5C;}
</style>
<path class="st0" d="M75.4,42.6c-0.7-6.4-1.7-12.8-3-19.1c0-0.2-0.2-0.4-0.5-0.5c-0.2-0.1-0.5,0-0.7,0.1C67,26.5,63,30.2,59.3,34.2
	c-3.8,4-6.6,8.8-8.4,14c-0.7,2.2-1.1,4.5-1.3,6.8c-0.4,4.2,0.4,8.4,2.3,12.2c1.8,3.4,4.9,6,8.5,7.1c0.7,3.3,1.7,6.6,3,9.7
	c0.1,0.3,0.4,0.4,0.7,0.4c0.1,0,0.2,0,0.3-0.1c0.4-0.1,0.5-0.6,0.4-0.9c0,0,0,0,0,0c-1.1-2.8-2-5.6-2.7-8.6
	c5.6-1.9,10.1-7,12.3-13.6C76.2,55,75.9,48.3,75.4,42.6z M60.6,60.2c4.6-3.9,9.3-8,13.7-12.1c0.1,2,0,4-0.1,5.9
	c-4.6,2.5-9.2,5.2-13.7,7.9C60.6,61.4,60.6,60.8,60.6,60.2L60.6,60.2z M74.2,46.3c-4.4,4.1-9,8.1-13.6,12c0.4-5,1.4-10,3.1-14.8
	c2.4-3.9,5.4-7.4,8.9-10.4c0.6,3.4,1,6.7,1.3,9.7C74.1,43.9,74.2,45.1,74.2,46.3L74.2,46.3z M72.4,31.4c-3.3,2.7-6.2,5.9-8.6,9.5
	c0.2-3.6,0.7-7.3,1.5-10.8c1.9-1.8,3.9-3.5,5.8-5.1C71.7,27.2,72.1,29.3,72.4,31.4L72.4,31.4z M60.3,35.1c1-1.2,2.1-2.3,3.2-3.4
	c-0.8,3.8-1.2,7.7-1.2,11.5l0,0c-0.8,2.3-1.5,4.6-2,6.9c-1.6-3.6-2.5-7.5-2.5-11.4c0-0.2-0.1-0.4-0.2-0.5
	C58.5,37.2,59.4,36.2,60.3,35.1L60.3,35.1z M56.6,39.9c0.2,4.3,1.3,8.4,3.2,12.2c0.1,0.1,0.1,0.2,0.2,0.2c-0.6,3.2-0.8,6.5-0.9,9.8
	c-2.9-2.8-5.6-5.8-8-9.1c0.2-1.5,0.6-3,1-4.5C53.2,45.5,54.7,42.6,56.6,39.9L56.6,39.9z M53.1,66.5C51.3,63,50.6,59,51,55.1
	c2.5,3.2,5.2,6.3,8.2,9c0.1,2.9,0.4,5.8,0.9,8.6C57.1,71.5,54.6,69.3,53.1,66.5L53.1,66.5z M62.2,73.3c-0.1-0.1-0.2-0.1-0.3-0.1
	c-0.1,0-0.2-0.1-0.4-0.1c-0.6-2.9-0.9-5.9-1-8.9c0.1-0.2,0.1-0.5,0-0.7c0.1,0,0.2,0,0.4-0.1c4.3-2.7,8.7-5.3,13.1-7.7
	c-0.2,1.7-0.6,3.5-1.1,5.1C71,66.8,67,71.4,62.2,73.3L62.2,73.3z"/>
<rect x="58.4" y="111.4" class="st0" width="11.3" height="1.4"/>
<g>
	<g>
		<path class="st0" d="M29.4,17.3c-0.3,0-0.7,0-1-0.2c-0.3-0.1-0.6-0.4-0.9-0.7c0.4-0.2,0.7-0.4,1.1-0.6c0.1,0.1,0.3,0.2,0.4,0.3
			c0.1,0.1,0.3,0.1,0.5,0.1c0.2,0,0.3-0.1,0.5-0.1c0.2-0.1,0.3-0.2,0.4-0.4c0.1-0.1,0.1-0.3,0.1-0.5c0-0.2-0.1-0.4-0.2-0.6
			c-0.3-0.5-0.5-0.9-0.8-1.4c-0.1-0.2-0.2-0.3-0.4-0.4c-0.2-0.1-0.3-0.1-0.5-0.1c-0.2,0-0.4,0.1-0.6,0.2c-0.2,0.1-0.3,0.2-0.4,0.3
			c-0.1,0.1-0.1,0.3-0.2,0.4c0,0.2,0,0.3,0,0.5c-0.4,0.2-0.7,0.4-1.1,0.7c-0.1-0.4-0.2-0.8-0.2-1.1c0-0.4,0.2-0.7,0.4-1
			c0.2-0.3,0.5-0.6,0.9-0.8c0.4-0.3,0.9-0.4,1.3-0.4c0.4,0,0.8,0.1,1.1,0.2c0.3,0.2,0.6,0.5,0.8,0.9c0.2,0.5,0.5,0.9,0.7,1.4
			c0.2,0.4,0.3,0.8,0.3,1.1c0,0.4-0.1,0.7-0.3,1c-0.2,0.3-0.5,0.6-0.9,0.8C30.1,17.2,29.7,17.3,29.4,17.3z M28,14.5
			c0.7-0.4,1.5-0.8,2.2-1.2c0.2,0.3,0.3,0.6,0.5,0.9c-0.7,0.4-1.5,0.8-2.2,1.2C28.4,15.1,28.2,14.8,28,14.5z"/>
		<path class="st0" d="M33.4,9c0.4-0.2,0.8-0.3,1.1-0.5c0.8,1.7,1.5,3.5,2.3,5.2c-0.4,0.2-0.7,0.3-1.1,0.5C35,12.5,34.2,10.8,33.4,9
			z M34.9,10.9c0.7-0.3,1.4-0.6,2.1-0.9c0.1,0.3,0.3,0.6,0.4,1c-0.7,0.3-1.4,0.6-2.1,0.9C35.2,11.6,35,11.3,34.9,10.9z M36.4,11.2
			c0.3-0.3,0.6-0.5,0.8-0.8c1,0.6,2.1,1.3,3.1,1.9c-0.4,0.2-0.9,0.3-1.3,0.5C38.1,12.3,37.2,11.7,36.4,11.2z M36.1,10.6
			c0.2-1,0.4-2,0.6-3c0.4-0.2,0.9-0.4,1.3-0.5c-0.3,1.3-0.6,2.6-0.8,3.8C36.9,10.8,36.5,10.7,36.1,10.6z"/>
		<path class="st0" d="M44.2,10.8c-0.4-0.1-0.7-0.2-1-0.5c-0.3-0.2-0.5-0.6-0.6-1c-0.2-0.5-0.3-1-0.5-1.5C42,7.4,42,7.1,42,6.7
			c0.1-0.4,0.3-0.7,0.6-1c0.3-0.3,0.7-0.5,1.1-0.6C44.2,5,44.6,5,45,5.1c0.4,0.1,0.7,0.2,1,0.5c0.3,0.3,0.5,0.6,0.6,1
			c0.1,0.5,0.3,1,0.4,1.6c0.1,0.4,0.1,0.8,0,1.1c-0.1,0.4-0.3,0.7-0.6,0.9c-0.3,0.3-0.6,0.4-1,0.6C44.9,10.8,44.5,10.9,44.2,10.8z
			 M45.6,9.4c0.1-0.1,0.2-0.3,0.3-0.4c0-0.2,0-0.3,0-0.5c-0.1-0.5-0.3-1.1-0.4-1.6c-0.1-0.2-0.1-0.3-0.3-0.5
			c-0.1-0.1-0.3-0.2-0.5-0.2c-0.2,0-0.4,0-0.6,0c-0.2,0.1-0.4,0.2-0.5,0.3c-0.1,0.1-0.2,0.3-0.3,0.4c0,0.2,0,0.4,0,0.5
			C43.5,8,43.6,8.5,43.8,9c0.1,0.2,0.2,0.3,0.3,0.5c0.1,0.1,0.3,0.2,0.5,0.2c0.2,0,0.4,0,0.6,0C45.3,9.6,45.4,9.5,45.6,9.4z"/>
		<path class="st0" d="M55.5,7.5c1.7-0.2,3.5-0.4,5.2-0.5c0,0.3,0,0.7,0.1,1c-1.7,0.1-3.4,0.2-5.1,0.5C55.6,8.2,55.5,7.9,55.5,7.5z
			 M55.5,7.5c0.4,0,0.7-0.1,1.1-0.1c0.1,0.7,0.2,1.5,0.2,2.2c-0.4,0-0.7,0.1-1.1,0.1C55.7,9,55.6,8.3,55.5,7.5z M55.5,7.5
			c0,0,0.1,0,0.1,0c0.3,0,0.4-0.2,0.5-0.4c0.1-0.2,0.1-0.5,0.1-0.9c-0.1-1.1-0.3-2.3-0.4-3.4c0.4,0,0.8-0.1,1.2-0.1
			c0.1,1.1,0.2,2.1,0.3,3.2c0,0.5,0,0.9-0.1,1.2c-0.1,0.3-0.3,0.6-0.5,0.8c-0.3,0.2-0.6,0.3-1,0.4c-0.1,0-0.1,0-0.2,0
			C55.6,8,55.6,7.8,55.5,7.5z M56.6,2.7c0.9-0.1,1.9-0.2,2.8-0.2c0,0.3,0,0.7,0.1,1c-0.9,0.1-1.9,0.1-2.8,0.2
			C56.7,3.4,56.6,3.1,56.6,2.7z M58.9,2.5c0.4,0,0.8-0.1,1.2-0.1c0.1,1.9,0.2,3.8,0.3,5.7c-0.4,0-0.8,0-1.1,0.1
			C59.2,6.3,59,4.4,58.9,2.5z M59.9,7.1c0.4,0,0.7,0,1.1-0.1c0,0.7,0.1,1.5,0.1,2.2c-0.4,0-0.7,0-1.1,0.1C60,8.6,60,7.8,59.9,7.1z"
			/>
		<path class="st0" d="M68.1,8.1c0.1-1.5,0.2-3,0.3-4.5c0,0,0.1,0.1,0.1,0.1C67.6,5.1,66.7,6.6,66,8c-0.5,0-0.9,0-1.4,0
			c0-1.9,0-3.8,0-5.7c0.4,0,0.8,0,1.2,0c0,1.5-0.1,3.1-0.1,4.6c0,0-0.1-0.1-0.1-0.1c0.8-1.5,1.7-3,2.6-4.4c0.5,0,1,0.1,1.5,0.1
			c-0.1,1.9-0.3,3.8-0.4,5.7C68.8,8.1,68.5,8.1,68.1,8.1z"/>
		<path class="st0" d="M73.8,8.5c-0.3-0.2-0.5-0.4-0.7-0.7C73,7.6,73,7.3,73,7c0.4,0,0.8,0.1,1.2,0.2c0,0.2,0.1,0.3,0.2,0.5
			c0.2,0.1,0.4,0.2,0.6,0.2c0.3,0,0.5,0,0.7-0.1C75.8,7.6,76,7.5,76,7.2c0,0,0,0,0,0c0-0.2,0-0.4-0.1-0.5c-0.1-0.1-0.3-0.2-0.5-0.3
			c-0.3-0.1-0.7-0.1-1-0.1c0-0.3,0.1-0.7,0.1-1c0.3,0,0.7,0.1,1,0.2c0.2,0,0.3,0,0.5-0.1c0.1-0.1,0.2-0.2,0.2-0.4c0,0,0,0,0,0
			c0-0.2,0-0.4-0.1-0.5c-0.1-0.1-0.3-0.2-0.6-0.3c-0.2,0-0.4,0-0.6,0.1c-0.2,0.1-0.3,0.2-0.4,0.4c-0.4-0.1-0.8-0.1-1.2-0.2
			c0.1-0.3,0.3-0.6,0.5-0.8c0.2-0.2,0.5-0.4,0.8-0.5c0.3-0.1,0.7-0.1,1.1,0c0.4,0.1,0.8,0.2,1.1,0.4c0.3,0.2,0.5,0.4,0.6,0.6
			c0.1,0.2,0.2,0.5,0.1,0.8c0,0,0,0,0,0c-0.1,0.3-0.2,0.5-0.4,0.7C77,5.9,76.8,6,76.5,6.1c0.3,0.1,0.5,0.3,0.6,0.6
			c0.1,0.3,0.2,0.6,0.1,0.9c0,0,0,0,0,0C77.1,8,77,8.2,76.8,8.4c-0.2,0.2-0.5,0.4-0.8,0.4c-0.3,0.1-0.7,0.1-1.1,0
			C74.5,8.8,74.1,8.7,73.8,8.5z"/>
		<path class="st0" d="M83.6,4.9C83.9,5,84.1,5,84.4,5.1c0.3,2,0.5,4.1,0.7,6.1c-0.4-0.1-0.8-0.2-1.2-0.4c-0.1-1.4-0.2-2.8-0.4-4.1
			c-0.8,1.1-1.6,2.2-2.4,3.4c-0.4-0.1-0.8-0.2-1.2-0.3C81.1,8.1,82.3,6.5,83.6,4.9z M81.5,8.2c1.1,0.3,2.1,0.6,3.2,0.9
			c-0.1,0.3-0.2,0.7-0.3,1c-1-0.3-2.1-0.6-3.1-0.9C81.3,8.9,81.4,8.5,81.5,8.2z"/>
		<path class="st0" d="M91.5,13.7c0.6-1.4,1.2-2.8,1.8-4.2c0,0,0,0.1,0.1,0.1c-1.3,1-2.6,2.1-3.9,3.2c-0.4-0.2-0.9-0.3-1.3-0.5
			c0.7-1.8,1.3-3.5,2-5.3c0.4,0.1,0.7,0.3,1.1,0.4c-0.6,1.4-1.1,2.9-1.7,4.3c0,0,0-0.1-0.1-0.1c1.3-1.1,2.6-2.2,4-3.2
			c0.5,0.2,0.9,0.4,1.4,0.6c-0.8,1.7-1.6,3.4-2.3,5.2C92.2,13.9,91.9,13.8,91.5,13.7z M94.6,6.9c-0.2,0.4-0.4,0.6-0.8,0.7
			c-0.3,0.1-0.7,0.1-1.2-0.1c0,0,0,0,0,0c-0.4-0.2-0.8-0.4-0.9-0.7c-0.2-0.3-0.2-0.7,0-1c0.3,0.1,0.6,0.3,1,0.4
			c-0.1,0.2-0.1,0.3,0,0.4c0,0.1,0.1,0.2,0.3,0.3c0,0,0,0,0,0c0.1,0.1,0.3,0.1,0.4,0c0.1-0.1,0.2-0.2,0.3-0.3
			C94,6.7,94.3,6.8,94.6,6.9z"/>
		<path class="st0" d="M98.7,10.8c0.4,0.2,0.7,0.4,1.1,0.6c-0.9,1.7-1.8,3.3-2.7,5c-0.3-0.2-0.7-0.4-1-0.6
			C97,14.2,97.9,12.5,98.7,10.8z M98.2,13.2c1.1,0.6,2.2,1.2,3.3,1.9c-0.2,0.3-0.4,0.6-0.5,0.9c-1.1-0.6-2.2-1.3-3.2-1.8
			C97.8,13.8,98,13.5,98.2,13.2z M102,12.6c0.4,0.2,0.7,0.4,1.1,0.7c-1,1.6-2,3.2-3,4.8c-0.3-0.2-0.7-0.4-1-0.6
			C100,15.9,101,14.2,102,12.6z"/>
	</g>
</g>
<g>
	<g>
		<path class="st0" d="M35.9,58.4l1.9-2.6c0.1-0.1,0.2-0.2,0.2-0.4s0.1-0.2,0.1-0.3v0c0-0.2,0-0.3-0.1-0.4s-0.2-0.1-0.4-0.1
			c-0.2,0-0.3,0.1-0.4,0.2s-0.2,0.3-0.2,0.5v0h-1.1v0c0-0.4,0.1-0.7,0.3-0.9s0.3-0.4,0.6-0.6s0.5-0.2,0.9-0.2c0.4,0,0.7,0.1,0.9,0.2
			s0.4,0.3,0.6,0.5s0.2,0.5,0.2,0.8v0c0,0.3,0,0.5-0.1,0.8s-0.2,0.5-0.4,0.7l-1.4,1.8h1.9v1h-3.4V58.4z"/>
		<path class="st0" d="M42.9,59c-0.3-0.3-0.4-0.7-0.4-1.2v-2.6c0-0.5,0.1-0.9,0.4-1.2s0.7-0.4,1.3-0.4c0.6,0,1,0.1,1.3,0.4
			s0.4,0.7,0.4,1.2v2.6c0,0.5-0.1,0.9-0.4,1.2s-0.7,0.4-1.3,0.4C43.6,59.4,43.2,59.3,42.9,59z M44.7,58.1c0.1-0.1,0.2-0.4,0.2-0.6
			v-2c0-0.3-0.1-0.5-0.2-0.6s-0.3-0.2-0.5-0.2s-0.4,0.1-0.5,0.2s-0.2,0.4-0.2,0.6v2c0,0.3,0.1,0.5,0.2,0.6s0.3,0.2,0.5,0.2
			S44.6,58.3,44.7,58.1z"/>
	</g>
</g>
<g>
	<g>
		<path class="st0" d="M78.9,58.4l1.9-2.6c0.1-0.1,0.2-0.2,0.2-0.4c0-0.1,0.1-0.2,0.1-0.3v0c0-0.2,0-0.3-0.1-0.4
			c-0.1-0.1-0.2-0.1-0.4-0.1c-0.2,0-0.3,0.1-0.4,0.2s-0.2,0.3-0.2,0.5v0h-1.1v0c0-0.4,0.1-0.7,0.3-0.9c0.1-0.3,0.3-0.4,0.6-0.6
			s0.5-0.2,0.9-0.2c0.4,0,0.7,0.1,0.9,0.2c0.3,0.1,0.4,0.3,0.6,0.5c0.1,0.2,0.2,0.5,0.2,0.8v0c0,0.3,0,0.5-0.1,0.8s-0.2,0.5-0.4,0.7
			l-1.4,1.8h1.9v1h-3.4V58.4z"/>
		<path class="st0" d="M85.9,59c-0.3-0.3-0.4-0.7-0.4-1.2v-2.6c0-0.5,0.1-0.9,0.4-1.2c0.3-0.3,0.7-0.4,1.3-0.4c0.6,0,1,0.1,1.3,0.4
			s0.4,0.7,0.4,1.2v2.6c0,0.5-0.1,0.9-0.4,1.2c-0.3,0.3-0.7,0.4-1.3,0.4C86.6,59.4,86.2,59.3,85.9,59z M87.7,58.1
			c0.1-0.1,0.2-0.4,0.2-0.6v-2c0-0.3-0.1-0.5-0.2-0.6s-0.3-0.2-0.5-0.2c-0.2,0-0.4,0.1-0.5,0.2s-0.2,0.4-0.2,0.6v2
			c0,0.3,0.1,0.5,0.2,0.6s0.3,0.2,0.5,0.2C87.4,58.4,87.6,58.3,87.7,58.1z"/>
	</g>
</g>
<g>
	<g>
		<path class="st0" d="M25.8,101h1.1v5.7h-1.1V101z M26.3,103.4h3.3v1h-3.3V103.4z M28.9,101H30v5.7h-1.1V101z"/>
		<path class="st0" d="M35.3,101H36l2.2,5.7H37l-1.4-3.9l-1.4,3.9h-1.2L35.3,101z M34.1,104.8h3v1h-3V104.8z"/>
		<path class="st0" d="M40.5,101h4.2v1h-4.2V101z M42,101.5h1.1v5.2H42V101.5z"/>
		<path class="st0" d="M47,101h1.1l1.7,4.1l-0.7,0.9L47,101z M50,105.6c-0.1,0.3-0.2,0.5-0.3,0.7s-0.3,0.3-0.5,0.4s-0.4,0.1-0.6,0.1
			H48v-1h0.4c0.1,0,0.2,0,0.3-0.1s0.2-0.1,0.3-0.2s0.1-0.2,0.2-0.4l1.4-4h1.1L50,105.6z"/>
		<path class="st0" d="M54.8,101h1.1v5.7h-1.1V101z M55.3,103.5h1.8c0.1,0,0.2,0,0.3-0.1s0.2-0.1,0.2-0.2s0.1-0.2,0.1-0.4
			c0-0.1,0-0.3-0.1-0.4s-0.1-0.2-0.2-0.3s-0.2-0.1-0.3-0.1h-1.8v-1H57c0.4,0,0.7,0.1,0.9,0.2s0.5,0.3,0.6,0.6s0.2,0.6,0.2,0.9
			s-0.1,0.7-0.2,0.9s-0.4,0.5-0.6,0.6s-0.6,0.2-0.9,0.2h-1.8V103.5z"/>
		<path class="st0" d="M63.8,101h0.7l2.2,5.7h-1.2l-1.4-3.9l-1.4,3.9h-1.2L63.8,101z M62.6,104.8h3v1h-3V104.8z"/>
		<path class="st0" d="M69.5,105.7c0.2,0,0.3,0,0.5-0.1s0.2-0.2,0.3-0.4s0.1-0.4,0.1-0.7V101h1.1v3.5c0,0.5-0.1,0.8-0.2,1.2
			s-0.4,0.6-0.6,0.7s-0.6,0.3-1,0.3h-0.1V105.7z M71,101h2.6v1H71V101z M73.1,101h1.1v5.7h-1.1V101z"/>
		<path class="st0" d="M77.9,101h1.1v5.7h-1.1V101z M78.4,105.7h1.8c0.1,0,0.2,0,0.3-0.1s0.2-0.1,0.2-0.3s0.1-0.2,0.1-0.4
			c0-0.1,0-0.3-0.1-0.4s-0.1-0.2-0.2-0.3s-0.2-0.1-0.3-0.1h-1.8v-1h1.8c0.4,0,0.7,0.1,0.9,0.2s0.5,0.4,0.6,0.6s0.2,0.6,0.2,0.9
			c0,0.3-0.1,0.7-0.2,0.9s-0.4,0.5-0.6,0.6s-0.6,0.2-0.9,0.2h-1.8V105.7z"/>
		<path class="st0" d="M85.3,101h1.1v5.7h-1.1V101z M85.8,103.4h3.3v1h-3.3V103.4z M88.5,101h1.1v5.7h-1.1V101z"/>
		<path class="st0" d="M94.8,101h0.7l2.2,5.7h-1.2l-1.4-3.9l-1.4,3.9h-1.2L94.8,101z M93.7,104.8h3v1h-3V104.8z"/>
		<path class="st0" d="M102,104.3l1.1,0.2l-1.4,2.2h-1.2L102,104.3z M101.3,104.3c-0.2-0.1-0.4-0.4-0.6-0.6s-0.2-0.6-0.2-0.9
			s0.1-0.7,0.2-0.9s0.3-0.5,0.6-0.6s0.5-0.2,0.9-0.2h1.9v1h-1.7c-0.1,0-0.2,0-0.3,0.1s-0.2,0.1-0.2,0.3s-0.1,0.2-0.1,0.4
			s0,0.3,0.1,0.4s0.1,0.2,0.2,0.3s0.2,0.1,0.3,0.1h1.7v1h-1.9C101.8,104.6,101.5,104.5,101.3,104.3z M103.4,101h1.1v5.7h-1.1V101z"
			/>
	</g>
</g>
<g>
	<g>
		<path class="st0" d="M35.6,117.6h1.1l1.7,4.1l-0.7,0.9L35.6,117.6z M38.6,122.1c-0.1,0.3-0.2,0.5-0.3,0.7s-0.3,0.3-0.5,0.4
			s-0.4,0.1-0.6,0.1h-0.7v-1H37c0.1,0,0.2,0,0.3-0.1s0.2-0.1,0.3-0.2s0.1-0.2,0.2-0.4l1.4-4h1.1L38.6,122.1z"/>
		<path class="st0" d="M43.3,117.6h1.1v5.7h-1.1V117.6z M43.8,117.6h3.3v1h-3.3V117.6z M46.5,117.6h1.1v5.7h-1.1V117.6z"/>
		<path class="st0" d="M52.8,117.6h0.7l2.2,5.7h-1.2l-1.4-3.9l-1.4,3.9h-1.2L52.8,117.6z M51.7,121.3h3v1h-3V121.3z"/>
		<path class="st0" d="M58.8,117.6h1.1v5.7h-1.1V117.6z M59.2,119.9h2v1h-2V119.9z M60.3,120.8l1-0.4l2,2.9h-1.3L60.3,120.8z
			 M60.3,120.2l1.5-2.6H63l-1.9,3.3L60.3,120.2z"/>
		<path class="st0" d="M67.2,123.1c-0.3-0.2-0.6-0.4-0.7-0.7s-0.3-0.7-0.3-1.1v-1.6c0-0.4,0.1-0.8,0.3-1.1s0.4-0.6,0.7-0.7
			s0.7-0.3,1.1-0.3s0.8,0.1,1.1,0.3s0.6,0.4,0.7,0.7s0.3,0.7,0.3,1.1v1.6c0,0.4-0.1,0.8-0.3,1.1s-0.4,0.6-0.7,0.7s-0.7,0.3-1.1,0.3
			S67.5,123.2,67.2,123.1z M68.8,122.1c0.1-0.1,0.3-0.2,0.3-0.3s0.1-0.3,0.1-0.5v-1.7c0-0.2,0-0.4-0.1-0.5s-0.2-0.3-0.3-0.3
			s-0.3-0.1-0.5-0.1s-0.4,0-0.5,0.1s-0.3,0.2-0.3,0.3s-0.1,0.3-0.1,0.5v1.7c0,0.2,0,0.4,0.1,0.5s0.2,0.3,0.3,0.3s0.3,0.1,0.5,0.1
			S68.6,122.2,68.8,122.1z"/>
		<path class="st0" d="M73.9,117.6h1.1v5.7h-1.1V117.6z M74.3,122.2h1.8c0.2,0,0.4-0.1,0.6-0.2s0.2-0.3,0.2-0.5v0
			c0-0.1,0-0.3-0.1-0.4s-0.1-0.2-0.3-0.2s-0.3-0.1-0.4-0.1h-1.8v-1h1.8c0.2,0,0.4-0.1,0.5-0.2s0.2-0.3,0.2-0.5
			c0-0.2-0.1-0.3-0.2-0.4s-0.3-0.2-0.5-0.2h-1.8v-1h1.8c0.4,0,0.7,0.1,0.9,0.2s0.5,0.3,0.6,0.5s0.2,0.5,0.2,0.8c0,0.2,0,0.4-0.1,0.6
			s-0.2,0.3-0.4,0.4s-0.4,0.2-0.6,0.2c0.3,0,0.5,0.1,0.6,0.2s0.3,0.3,0.4,0.5s0.1,0.4,0.1,0.7v0c0,0.3-0.1,0.6-0.2,0.8
			s-0.3,0.4-0.6,0.5s-0.6,0.2-0.9,0.2h-1.9V122.2z"/>
		<path class="st0" d="M81.4,117.6h1.1v5.7h-1.1V117.6z M81.9,119.9h2v1h-2V119.9z M83,120.8l1-0.4l2,2.9h-1.3L83,120.8z M83,120.2
			l1.5-2.6h1.2l-1.9,3.3L83,120.2z"/>
		<path class="st0" d="M90.6,117.6h0.7l2.2,5.7h-1.2l-1.4-3.9l-1.4,3.9h-1.2L90.6,117.6z M89.4,121.3h3v1h-3V121.3z"/>
	</g>
</g>
<circle class="st0" cx="23.7" cy="18.8" r="0.9"/>
<circle class="st0" cx="105.4" cy="18.8" r="0.9"/>
</svg>
