<?xml version="1.0" encoding="utf-8"?>
<!-- Generator: Adobe Illustrator 24.0.1, SVG Export Plug-In . SVG Version: 6.00 Build 0)  -->
<svg version="1.1" id="Слой_1" xmlns="http://www.w3.org/2000/svg" xmlns:xlink="http://www.w3.org/1999/xlink" x="0px" y="0px"
	 viewBox="0 0 448 448" style="enable-background:new 0 0 448 448;" xml:space="preserve">
<style type="text/css">
	.st0{fill:#00DBD0;}
</style>
<title></title>
<g id="icomoon-ignore">
</g>
<path class="st0" d="M380.8,334.8c-6.5-46.8-25.5-88.3-68-94c-22,24-53.8,39.3-88.8,39.3s-66.8-15.3-88.8-39.3
	c-42.5,5.8-61.5,47.3-68,94c34.8,49,92,81.3,156.8,81.3S346,383.8,380.8,334.8z M320,160c0-53-43-96-96-96s-96,43-96,96s43,96,96,96
	S320,213,320,160z M448,224c0,123.3-100,224-224,224C100.3,448,0,347.5,0,224C0,100.3,100.3,0,224,0S448,100.3,448,224z"/>
</svg>
